<svg xmlns="http://www.w3.org/2000/svg" xmlns:xlink="http://www.w3.org/1999/xlink" width="1080" zoomAndPan="magnify" viewBox="0 0 810 809.999993" height="1080" preserveAspectRatio="xMidYMid meet" version="1.0"><path fill="#ffffff" d="M 405 0 C 181.519531 0 0 181.519531 0 405 C 0 628.480469 181.519531 810 405 810 C 628.480469 810 810 628.480469 810 405 C 810 181.519531 628.480469 0 405 0 Z M 405 35.21875 C 609.425781 35.21875 774.78125 200.574219 774.78125 405 C 774.78125 609.425781 609.425781 774.78125 405 774.78125 C 200.574219 774.78125 35.21875 609.425781 35.21875 405 C 35.21875 200.574219 200.574219 35.21875 405 35.21875 Z M 405 88.042969 C 366.273438 88.042969 334.566406 119.753906 334.566406 158.476562 C 334.566406 197.203125 366.273438 228.914062 405 228.914062 C 443.726562 228.914062 475.433594 197.203125 475.433594 158.476562 C 475.433594 119.753906 443.726562 88.042969 405 88.042969 Z M 405 123.261719 C 424.671875 123.261719 440.21875 138.804688 440.21875 158.476562 C 440.21875 178.152344 424.671875 193.695312 405 193.695312 C 385.328125 193.695312 369.78125 178.152344 369.78125 158.476562 C 369.78125 138.804688 385.328125 123.261719 405 123.261719 Z M 190.394531 219.007812 C 172.511719 220.382812 156.140625 232.007812 150.222656 249.824219 C 142.382812 273.277344 155.039062 299.277344 178.289062 307.601562 L 316.957031 357.125 L 316.957031 473.234375 L 272.933594 649.871094 C 266.125 677.246094 287.105469 704.347656 315.304688 704.347656 C 334.152344 704.347656 351.210938 692.035156 357.125 674.082031 L 405 530.460938 L 452.875 674.082031 C 458.789062 692.035156 475.847656 704.347656 494.695312 704.347656 C 522.894531 704.347656 543.875 677.246094 537.066406 649.871094 L 493.042969 473.234375 L 493.042969 357.125 L 631.710938 307.601562 C 654.960938 299.277344 667.617188 273.277344 659.777344 249.824219 C 651.867188 226.09375 625.175781 213.300781 601.445312 221.210938 L 473.234375 264.128906 L 336.765625 264.128906 L 208.554688 221.210938 C 202.636719 219.214844 196.378906 218.527344 190.394531 219.007812 Z M 192.59375 254.226562 C 193.972656 254.15625 195.554688 254.292969 196.996094 254.777344 L 329.0625 298.246094 L 331.8125 299.347656 L 478.1875 299.347656 L 480.9375 298.246094 L 613.003906 254.777344 C 618.710938 252.851562 624.285156 255.671875 626.210938 261.378906 C 628.066406 267.019531 625.175781 272.589844 619.605469 274.585938 L 469.382812 327.960938 L 457.824219 331.8125 L 457.824219 477.636719 L 502.949219 658.125 C 504.460938 664.109375 500.816406 669.128906 494.695312 669.128906 C 490.84375 669.128906 487.058594 666.722656 485.890625 663.078125 L 423.160156 475.984375 C 423.160156 475.433594 423.160156 474.882812 423.160156 474.335938 C 423.847656 465.1875 417.382812 457 408.300781 455.625 C 408.09375 455.625 407.957031 455.625 407.75 455.625 C 406.855469 455.351562 405.964844 455.210938 405 455.074219 C 404.792969 455.074219 404.65625 455.074219 404.449219 455.074219 C 403.488281 455.210938 402.59375 455.351562 401.699219 455.625 C 400.734375 455.761719 399.839844 455.898438 398.945312 456.175781 C 390.96875 458.71875 385.945312 466.5625 386.839844 474.882812 L 324.109375 663.078125 C 322.941406 666.722656 319.15625 669.128906 315.304688 669.128906 C 309.183594 669.128906 305.539062 664.109375 307.050781 658.125 L 352.175781 477.636719 L 352.175781 331.8125 L 340.617188 327.960938 L 190.394531 274.585938 C 184.824219 272.589844 181.933594 267.019531 183.789062 261.378906 C 185.234375 257.113281 188.535156 254.5 192.59375 254.226562 Z M 192.59375 254.226562 " fill-opacity="1" fill-rule="nonzero"/></svg>