<svg xmlns="http://www.w3.org/2000/svg" xmlns:xlink="http://www.w3.org/1999/xlink" width="1080" zoomAndPan="magnify" viewBox="0 0 810 809.999993" height="1080" preserveAspectRatio="xMidYMid meet" version="1.0"><defs><clipPath id="46f9b26c3a"><path d="M 55.011719 225 L 650 225 L 650 809 L 55.011719 809 Z M 55.011719 225 " clip-rule="nonzero"/></clipPath></defs><g clip-path="url(#46f9b26c3a)"><path fill="#ffffff" d="M 462.613281 808.007812 C 458.824219 808.015625 455.195312 807.25 451.730469 805.710938 C 417.179688 790.335938 326.113281 749.992188 227.160156 708.15625 C 191.027344 693.214844 156.710938 674.875 124.210938 653.136719 C 121.542969 651.300781 118.929688 649.382812 116.378906 647.386719 C 113.828125 645.394531 111.335938 643.320312 108.910156 641.175781 C 106.484375 639.027344 104.125 636.808594 101.835938 634.519531 C 99.542969 632.230469 97.324219 629.871094 95.175781 627.445312 C 93.027344 625.019531 90.953125 622.53125 88.957031 619.980469 C 86.960938 617.429688 85.042969 614.820312 83.207031 612.152344 C 81.367188 609.484375 79.613281 606.761719 77.941406 603.988281 C 76.269531 601.214844 74.683594 598.390625 73.183594 595.519531 C 71.679688 592.648438 70.269531 589.734375 68.945312 586.777344 C 67.621094 583.820312 66.390625 580.824219 65.25 577.792969 C 64.109375 574.761719 63.058594 571.695312 62.105469 568.601562 C 61.152344 565.503906 60.292969 562.382812 59.527344 559.234375 C 58.761719 556.085938 58.09375 552.917969 57.519531 549.730469 C 56.949219 546.542969 56.472656 543.339844 56.097656 540.121094 C 55.71875 536.902344 55.441406 533.675781 55.261719 530.441406 C 55.078125 527.207031 54.996094 523.96875 55.011719 520.730469 C 55.019531 517.613281 55.117188 514.5 55.304688 511.390625 C 55.492188 508.277344 55.769531 505.175781 56.132812 502.082031 C 56.5 498.984375 56.957031 495.90625 57.5 492.835938 C 58.042969 489.769531 58.675781 486.71875 59.398438 483.683594 C 60.117188 480.652344 60.925781 477.644531 61.820312 474.660156 C 62.714844 471.675781 63.691406 468.71875 64.757812 465.789062 C 65.824219 462.859375 66.972656 459.964844 68.203125 457.101562 C 69.4375 454.238281 70.75 451.414062 72.144531 448.628906 C 73.539062 445.839844 75.015625 443.097656 76.570312 440.394531 C 78.125 437.695312 79.753906 435.039062 81.460938 432.433594 C 83.167969 429.828125 84.949219 427.269531 86.804688 424.765625 C 88.660156 422.261719 90.585938 419.8125 92.582031 417.421875 C 94.578125 415.027344 96.640625 412.695312 98.773438 410.417969 C 100.902344 408.144531 103.097656 405.9375 105.355469 403.789062 C 107.613281 401.640625 109.933594 399.5625 112.3125 397.546875 C 114.691406 395.535156 117.125 393.59375 119.617188 391.71875 L 332.503906 232.652344 C 333.605469 231.90625 334.738281 231.210938 335.90625 230.570312 C 337.074219 229.929688 338.265625 229.347656 339.488281 228.820312 C 340.710938 228.292969 341.957031 227.824219 343.222656 227.417969 C 344.488281 227.007812 345.773438 226.660156 347.070312 226.375 C 348.371094 226.089844 349.683594 225.867188 351.003906 225.703125 C 352.324219 225.542969 353.648438 225.445312 354.980469 225.410156 C 356.3125 225.375 357.640625 225.402344 358.96875 225.496094 C 360.296875 225.585938 361.617188 225.738281 362.929688 225.957031 C 364.242188 226.175781 365.542969 226.453125 366.828125 226.792969 C 368.113281 227.136719 369.382812 227.535156 370.628906 227.996094 C 371.878906 228.460938 373.101562 228.980469 374.300781 229.558594 C 375.5 230.136719 376.667969 230.769531 377.804688 231.457031 C 378.945312 232.148438 380.046875 232.890625 381.117188 233.683594 C 382.183594 234.476562 383.210938 235.320312 384.199219 236.210938 C 385.1875 237.105469 386.128906 238.042969 387.027344 239.023438 C 387.925781 240.003906 388.777344 241.027344 389.578125 242.089844 C 390.378906 243.152344 391.128906 244.25 391.824219 245.386719 C 392.519531 246.519531 393.160156 247.683594 393.746094 248.878906 C 394.332031 250.074219 394.859375 251.296875 395.328125 252.539062 C 395.796875 253.785156 396.207031 255.050781 396.558594 256.335938 C 396.90625 257.617188 397.191406 258.917969 397.417969 260.230469 C 397.644531 261.539062 397.808594 262.859375 397.90625 264.1875 C 398.007812 265.511719 398.042969 266.84375 398.015625 268.171875 C 397.988281 269.503906 397.898438 270.828125 397.746094 272.152344 C 397.59375 273.472656 397.378906 274.785156 397.101562 276.085938 C 396.824219 277.390625 396.484375 278.675781 396.085938 279.945312 C 395.683594 281.210938 395.226562 282.460938 394.707031 283.6875 C 394.1875 284.910156 393.609375 286.109375 392.976562 287.28125 C 392.34375 288.449219 391.65625 289.589844 390.917969 290.695312 C 390.175781 291.800781 389.382812 292.867188 388.539062 293.898438 C 387.699219 294.925781 386.808594 295.914062 385.871094 296.859375 C 384.933594 297.804688 383.953125 298.703125 382.929688 299.554688 L 288.269531 371.550781 C 287 372.515625 285.8125 373.574219 284.710938 374.726562 C 283.609375 375.882812 282.605469 377.117188 281.703125 378.429688 C 280.796875 379.746094 280.003906 381.125 279.320312 382.566406 C 278.636719 384.007812 278.070312 385.492188 277.621094 387.023438 C 277.175781 388.558594 276.855469 390.113281 276.65625 391.699219 C 276.457031 393.28125 276.386719 394.871094 276.445312 396.464844 C 276.5 398.058594 276.683594 399.640625 276.992188 401.207031 C 277.300781 402.769531 277.730469 404.300781 278.285156 405.796875 C 278.761719 407.125 279.332031 408.410156 279.988281 409.65625 C 280.648438 410.90625 281.390625 412.097656 282.21875 413.238281 C 283.046875 414.382812 283.949219 415.457031 284.929688 416.472656 C 285.910156 417.488281 286.957031 418.425781 288.066406 419.292969 C 289.179688 420.160156 290.347656 420.941406 291.570312 421.644531 C 292.792969 422.34375 294.058594 422.957031 295.371094 423.480469 C 296.679688 424.003906 298.019531 424.429688 299.386719 424.761719 C 300.757812 425.097656 302.144531 425.332031 303.546875 425.46875 L 621.78125 455.425781 C 623.253906 455.515625 624.714844 455.710938 626.160156 456.011719 C 627.605469 456.316406 629.019531 456.726562 630.40625 457.238281 C 631.789062 457.75 633.128906 458.363281 634.421875 459.074219 C 635.71875 459.785156 636.953125 460.585938 638.128906 461.480469 C 639.304688 462.375 640.40625 463.351562 641.441406 464.40625 C 642.472656 465.464844 643.417969 466.589844 644.285156 467.789062 C 645.148438 468.984375 645.921875 470.238281 646.601562 471.550781 C 647.277344 472.863281 647.859375 474.214844 648.335938 475.613281 C 648.816406 477.011719 649.191406 478.433594 649.457031 479.886719 C 649.726562 481.339844 649.886719 482.804688 649.9375 484.28125 C 649.988281 485.753906 649.933594 487.226562 649.765625 488.695312 C 649.601562 490.160156 649.328125 491.609375 648.949219 493.035156 C 648.566406 494.464844 648.085938 495.855469 647.5 497.210938 C 646.914062 498.566406 646.230469 499.871094 645.453125 501.125 C 644.671875 502.382812 643.808594 503.570312 642.851562 504.699219 C 641.898438 505.824219 640.863281 506.875 639.753906 507.847656 C 638.234375 509.269531 636.585938 510.519531 634.8125 511.601562 C 633.035156 512.6875 631.167969 513.582031 629.214844 514.285156 C 627.257812 514.988281 625.25 515.488281 623.191406 515.78125 C 621.128906 516.078125 619.0625 516.164062 616.988281 516.035156 L 431.859375 504.054688 C 431.035156 503.992188 430.207031 504.003906 429.386719 504.09375 C 428.5625 504.183594 427.753906 504.351562 426.960938 504.59375 C 426.167969 504.835938 425.40625 505.148438 424.671875 505.53125 C 423.9375 505.917969 423.246094 506.367188 422.597656 506.878906 C 421.949219 507.394531 421.351562 507.964844 420.808594 508.589844 C 420.265625 509.214844 419.785156 509.886719 419.367188 510.601562 C 418.949219 511.316406 418.601562 512.0625 418.324219 512.84375 C 418.046875 513.625 417.84375 514.425781 417.714844 515.242188 C 417.585938 516.0625 417.535156 516.882812 417.5625 517.710938 C 417.589844 518.539062 417.691406 519.359375 417.871094 520.167969 C 418.050781 520.976562 418.300781 521.761719 418.628906 522.523438 C 418.953125 523.285156 419.347656 524.007812 419.808594 524.695312 C 420.269531 525.382812 420.792969 526.023438 421.375 526.613281 C 421.953125 527.203125 422.585938 527.734375 423.265625 528.207031 C 423.945312 528.679688 424.664062 529.085938 425.421875 529.421875 C 426.179688 529.761719 426.960938 530.023438 427.765625 530.214844 L 623.777344 580.144531 C 624.59375 580.386719 625.394531 580.667969 626.183594 580.988281 C 626.972656 581.304688 627.746094 581.660156 628.5 582.054688 C 629.253906 582.445312 629.988281 582.871094 630.703125 583.332031 C 631.421875 583.792969 632.113281 584.289062 632.78125 584.8125 C 633.449219 585.339844 634.089844 585.898438 634.707031 586.484375 C 635.324219 587.070312 635.910156 587.6875 636.46875 588.328125 C 637.023438 588.972656 637.550781 589.636719 638.046875 590.332031 C 638.542969 591.023438 639.003906 591.738281 639.429688 592.472656 C 639.859375 593.207031 640.25 593.960938 640.605469 594.734375 C 640.964844 595.507812 641.28125 596.292969 641.566406 597.097656 C 641.847656 597.898438 642.089844 598.714844 642.296875 599.539062 C 642.5 600.367188 642.667969 601.199219 642.792969 602.039062 C 642.921875 602.882812 643.007812 603.726562 643.054688 604.578125 C 643.101562 605.425781 643.109375 606.277344 643.074219 607.125 C 643.042969 607.976562 642.96875 608.824219 642.855469 609.667969 C 642.742188 610.511719 642.589844 611.347656 642.398438 612.175781 C 642.207031 613.003906 641.976562 613.820312 641.707031 614.628906 C 641.4375 615.4375 641.132812 616.230469 640.789062 617.007812 C 640.445312 617.785156 640.066406 618.546875 639.648438 619.289062 C 639.234375 620.03125 638.785156 620.753906 638.300781 621.453125 C 637.816406 622.152344 637.300781 622.828125 636.753906 623.480469 C 636.207031 624.132812 635.628906 624.753906 635.023438 625.351562 C 634.417969 625.949219 633.785156 626.515625 633.125 627.054688 C 632.464844 627.589844 631.78125 628.097656 631.074219 628.570312 C 630.367188 629.042969 629.636719 629.480469 628.890625 629.882812 C 628.140625 630.289062 627.375 630.65625 626.589844 630.988281 C 625.808594 631.320312 625.011719 631.613281 624.199219 631.871094 C 623.386719 632.128906 622.566406 632.347656 621.734375 632.527344 C 620.902344 632.703125 620.066406 632.84375 619.21875 632.945312 C 618.375 633.042969 617.527344 633.105469 616.675781 633.125 C 615.824219 633.144531 614.976562 633.125 614.128906 633.066406 C 613.277344 633.003906 612.433594 632.90625 611.59375 632.765625 L 412.886719 591.625 C 411.871094 591.390625 410.84375 591.25 409.804688 591.210938 C 408.765625 591.167969 407.730469 591.226562 406.699219 591.382812 C 405.667969 591.542969 404.664062 591.792969 403.683594 592.144531 C 402.703125 592.492188 401.761719 592.929688 400.863281 593.457031 C 399.964844 593.984375 399.125 594.59375 398.34375 595.28125 C 397.5625 595.96875 396.855469 596.726562 396.214844 597.550781 C 395.578125 598.371094 395.023438 599.25 394.554688 600.179688 C 394.085938 601.109375 393.707031 602.074219 393.421875 603.074219 C 393.132812 604.074219 392.945312 605.09375 392.851562 606.132812 C 392.761719 607.171875 392.769531 608.207031 392.875 609.242188 C 392.980469 610.277344 393.183594 611.296875 393.484375 612.292969 C 393.785156 613.289062 394.175781 614.25 394.660156 615.171875 C 395.144531 616.09375 395.710938 616.964844 396.359375 617.777344 C 397.007812 618.59375 397.726562 619.339844 398.519531 620.015625 C 399.308594 620.691406 400.160156 621.289062 401.0625 621.804688 C 401.96875 622.320312 402.914062 622.746094 403.898438 623.078125 L 553.679688 678.199219 C 554.535156 678.488281 555.375 678.820312 556.199219 679.191406 C 557.019531 679.5625 557.824219 679.972656 558.605469 680.425781 C 559.386719 680.875 560.144531 681.363281 560.878906 681.886719 C 561.613281 682.414062 562.320312 682.972656 563 683.570312 C 563.679688 684.164062 564.328125 684.789062 564.945312 685.449219 C 565.5625 686.105469 566.148438 686.792969 566.699219 687.507812 C 567.25 688.226562 567.761719 688.964844 568.238281 689.730469 C 568.71875 690.5 569.15625 691.285156 569.554688 692.09375 C 569.957031 692.90625 570.316406 693.730469 570.632812 694.578125 C 570.953125 695.421875 571.230469 696.28125 571.464844 697.152344 C 571.699219 698.023438 571.890625 698.90625 572.039062 699.796875 C 572.1875 700.6875 572.289062 701.582031 572.347656 702.484375 C 572.410156 703.382812 572.425781 704.285156 572.394531 705.1875 C 572.367188 706.089844 572.292969 706.988281 572.175781 707.882812 C 572.058594 708.777344 571.898438 709.667969 571.695312 710.546875 C 571.492188 711.425781 571.246094 712.292969 570.957031 713.148438 C 570.664062 714.003906 570.335938 714.84375 569.964844 715.664062 C 569.589844 716.488281 569.179688 717.289062 568.730469 718.070312 C 568.277344 718.855469 567.789062 719.613281 567.265625 720.347656 C 566.742188 721.082031 566.179688 721.789062 565.585938 722.46875 C 564.992188 723.148438 564.363281 723.796875 563.707031 724.414062 C 563.046875 725.03125 562.359375 725.613281 561.644531 726.164062 C 560.929688 726.714844 560.1875 727.230469 559.421875 727.707031 C 558.65625 728.183594 557.867188 728.625 557.058594 729.023438 C 556.25 729.421875 555.421875 729.78125 554.578125 730.101562 C 553.734375 730.421875 552.875 730.695312 552.003906 730.929688 C 551.128906 731.164062 550.25 731.355469 549.359375 731.503906 C 548.46875 731.652344 547.574219 731.757812 546.671875 731.816406 C 545.769531 731.875 544.871094 731.890625 543.96875 731.863281 C 543.066406 731.835938 542.164062 731.761719 541.269531 731.644531 C 540.375 731.527344 539.488281 731.367188 538.609375 731.164062 C 537.730469 730.957031 536.863281 730.710938 536.007812 730.421875 L 355.871094 675.105469 C 354.941406 674.816406 353.988281 674.652344 353.015625 674.617188 C 352.039062 674.578125 351.078125 674.667969 350.128906 674.882812 C 349.175781 675.101562 348.273438 675.4375 347.410156 675.894531 C 346.546875 676.347656 345.761719 676.90625 345.046875 677.570312 C 344.332031 678.234375 343.71875 678.980469 343.199219 679.804688 C 342.683594 680.628906 342.28125 681.507812 341.996094 682.441406 C 341.710938 683.371094 341.550781 684.324219 341.515625 685.300781 C 341.480469 686.273438 341.574219 687.234375 341.792969 688.183594 C 342.191406 689.8125 342.914062 691.28125 343.960938 692.589844 C 345.007812 693.898438 346.28125 694.925781 347.78125 695.671875 L 474.398438 756.484375 C 476.054688 757.269531 477.613281 758.214844 479.074219 759.324219 C 480.535156 760.429688 481.867188 761.675781 483.070312 763.058594 C 484.273438 764.441406 485.320312 765.933594 486.214844 767.535156 C 487.109375 769.136719 487.828125 770.8125 488.375 772.558594 C 488.542969 773.070312 488.691406 773.582031 488.828125 774.097656 C 488.964844 774.613281 489.082031 775.136719 489.1875 775.660156 C 489.292969 776.183594 489.378906 776.710938 489.453125 777.238281 C 489.527344 777.765625 489.585938 778.296875 489.625 778.832031 C 489.667969 779.363281 489.695312 779.898438 489.703125 780.429688 C 489.714844 780.964844 489.710938 781.5 489.6875 782.03125 C 489.667969 782.566406 489.628906 783.097656 489.578125 783.632812 C 489.523438 784.164062 489.453125 784.691406 489.371094 785.21875 C 489.285156 785.746094 489.1875 786.273438 489.070312 786.792969 C 488.957031 787.316406 488.824219 787.832031 488.679688 788.347656 C 488.53125 788.859375 488.371094 789.371094 488.195312 789.875 C 488.019531 790.378906 487.828125 790.875 487.621094 791.371094 C 487.417969 791.863281 487.195312 792.347656 486.960938 792.828125 C 486.726562 793.308594 486.480469 793.78125 486.214844 794.246094 C 485.953125 794.710938 485.679688 795.167969 485.386719 795.617188 C 485.097656 796.066406 484.796875 796.507812 484.480469 796.9375 C 484.164062 797.371094 483.835938 797.789062 483.496094 798.203125 C 483.15625 798.613281 482.804688 799.015625 482.4375 799.40625 C 482.074219 799.796875 481.699219 800.175781 481.3125 800.542969 C 480.925781 800.914062 480.527344 801.269531 480.121094 801.613281 C 479.710938 801.960938 479.292969 802.292969 478.867188 802.613281 C 478.4375 802.933594 478 803.238281 477.554688 803.535156 C 477.109375 803.828125 476.65625 804.109375 476.195312 804.375 C 475.730469 804.644531 475.261719 804.898438 474.785156 805.136719 C 474.304688 805.375 473.820312 805.601562 473.332031 805.8125 C 472.839844 806.023438 472.34375 806.21875 471.839844 806.402344 C 471.339844 806.582031 470.832031 806.75 470.320312 806.898438 C 469.804688 807.050781 469.289062 807.1875 468.769531 807.308594 C 468.25 807.429688 467.726562 807.535156 467.199219 807.625 C 466.671875 807.714844 466.144531 807.789062 465.613281 807.847656 C 465.082031 807.90625 464.550781 807.949219 464.015625 807.976562 C 463.484375 808 462.949219 808.011719 462.414062 808.007812 Z M 462.613281 808.007812 " fill-opacity="1" fill-rule="nonzero"/></g><path fill="#ffffff" d="M 303.945312 188.617188 C 304.804688 187.984375 305.589844 187.265625 306.296875 186.46875 C 307.003906 185.667969 307.617188 184.804688 308.144531 183.875 C 308.667969 182.945312 309.089844 181.972656 309.410156 180.953125 C 309.726562 179.9375 309.9375 178.894531 310.039062 177.832031 L 318.726562 82.074219 C 318.84375 80.761719 318.902344 79.445312 318.898438 78.128906 C 318.890625 76.808594 318.824219 75.496094 318.695312 74.183594 C 318.566406 72.871094 318.375 71.566406 318.125 70.273438 C 317.871094 68.980469 317.5625 67.699219 317.1875 66.4375 C 316.816406 65.171875 316.386719 63.925781 315.894531 62.703125 C 315.40625 61.480469 314.859375 60.28125 314.257812 59.109375 C 313.652344 57.9375 312.996094 56.796875 312.285156 55.683594 C 311.578125 54.574219 310.816406 53.5 310.003906 52.460938 C 309.191406 51.421875 308.332031 50.425781 307.425781 49.464844 C 306.523438 48.507812 305.574219 47.597656 304.582031 46.726562 C 303.589844 45.859375 302.558594 45.039062 301.488281 44.269531 C 300.421875 43.496094 299.316406 42.777344 298.179688 42.113281 C 297.042969 41.445312 295.878906 40.832031 294.683594 40.277344 C 293.488281 39.71875 292.269531 39.21875 291.027344 38.777344 C 289.785156 38.335938 288.527344 37.953125 287.25 37.628906 C 285.96875 37.304688 284.679688 37.042969 283.378906 36.839844 C 281.972656 36.621094 280.5625 36.472656 279.144531 36.394531 C 277.726562 36.316406 276.304688 36.3125 274.886719 36.382812 C 273.46875 36.449219 272.054688 36.589844 270.648438 36.800781 C 269.246094 37.011719 267.855469 37.296875 266.476562 37.648438 C 265.101562 38.003906 263.746094 38.425781 262.414062 38.917969 C 261.082031 39.40625 259.777344 39.964844 258.5 40.589844 C 257.222656 41.214844 255.980469 41.902344 254.777344 42.652344 C 253.570312 43.40625 252.40625 44.214844 251.28125 45.085938 C 250.15625 45.953125 249.082031 46.878906 248.050781 47.859375 C 247.023438 48.835938 246.042969 49.867188 245.121094 50.945312 C 244.195312 52.023438 243.328125 53.148438 242.515625 54.3125 C 241.707031 55.480469 240.957031 56.6875 240.269531 57.929688 C 239.582031 59.171875 238.960938 60.449219 238.402344 61.753906 C 237.847656 63.0625 237.355469 64.394531 236.933594 65.75 C 236.511719 67.109375 236.160156 68.484375 235.878906 69.875 C 235.597656 71.269531 235.386719 72.671875 235.246094 74.085938 L 218.773438 239.84375 C 218.683594 240.453125 218.691406 241.066406 218.789062 241.675781 C 218.890625 242.289062 219.078125 242.871094 219.351562 243.421875 C 219.628906 243.976562 219.980469 244.476562 220.410156 244.921875 C 220.839844 245.367188 221.324219 245.742188 221.867188 246.039062 C 222.410156 246.335938 222.984375 246.546875 223.589844 246.671875 C 224.195312 246.792969 224.808594 246.824219 225.421875 246.761719 C 226.039062 246.699219 226.628906 246.546875 227.199219 246.300781 C 227.765625 246.058594 228.285156 245.734375 228.757812 245.335938 Z M 303.945312 188.617188 " fill-opacity="1" fill-rule="nonzero"/><path fill="#ffffff" d="M 748.496094 336.5 C 748.199219 335.75 747.871094 335.011719 747.503906 334.292969 C 747.136719 333.574219 746.738281 332.875 746.300781 332.195312 C 745.863281 331.515625 745.398438 330.859375 744.894531 330.226562 C 744.394531 329.59375 743.863281 328.988281 743.304688 328.40625 C 742.742188 327.828125 742.15625 327.273438 741.539062 326.753906 C 740.925781 326.230469 740.285156 325.738281 739.621094 325.28125 C 738.957031 324.820312 738.273438 324.394531 737.566406 324.003906 C 736.859375 323.613281 736.136719 323.257812 735.394531 322.9375 C 734.652344 322.617188 733.898438 322.335938 733.128906 322.089844 C 732.359375 321.847656 731.582031 321.640625 730.792969 321.472656 C 730.003906 321.304688 729.207031 321.175781 728.40625 321.085938 C 727.601562 321 726.796875 320.949219 725.992188 320.941406 C 725.183594 320.929688 724.378906 320.960938 723.574219 321.03125 C 722.769531 321.101562 721.972656 321.210938 721.175781 321.363281 C 720.382812 321.511719 719.601562 321.699219 718.824219 321.925781 C 718.050781 322.152344 717.289062 322.417969 716.542969 322.722656 L 586.933594 375.542969 C 586.132812 375.882812 585.300781 376.128906 584.445312 376.273438 C 583.585938 376.417969 582.722656 376.457031 581.855469 376.398438 C 580.988281 376.335938 580.136719 376.175781 579.308594 375.914062 C 578.480469 375.648438 577.691406 375.292969 576.945312 374.84375 C 576.210938 374.453125 575.53125 373.988281 574.90625 373.4375 C 574.277344 372.890625 573.722656 372.28125 573.238281 371.605469 C 572.753906 370.929688 572.351562 370.207031 572.03125 369.441406 C 571.714844 368.671875 571.488281 367.875 571.355469 367.054688 C 571.191406 365.910156 571.207031 364.769531 571.398438 363.628906 C 571.589844 362.492188 571.949219 361.40625 572.476562 360.378906 C 573.003906 359.351562 573.675781 358.425781 574.488281 357.605469 C 575.304688 356.785156 576.222656 356.109375 577.246094 355.574219 L 740.207031 260.414062 C 741.019531 259.941406 741.804688 259.429688 742.566406 258.878906 C 743.324219 258.328125 744.054688 257.738281 744.753906 257.113281 C 745.453125 256.484375 746.121094 255.824219 746.75 255.132812 C 747.382812 254.4375 747.980469 253.710938 748.535156 252.957031 C 749.09375 252.203125 749.613281 251.421875 750.089844 250.613281 C 750.570312 249.804688 751.003906 248.976562 751.398438 248.121094 C 751.792969 247.269531 752.140625 246.398438 752.445312 245.511719 C 752.75 244.625 753.007812 243.722656 753.21875 242.808594 C 753.433594 241.894531 753.597656 240.96875 753.714844 240.039062 C 753.832031 239.105469 753.902344 238.171875 753.925781 237.234375 C 753.949219 236.292969 753.921875 235.355469 753.851562 234.421875 C 753.777344 233.484375 753.65625 232.554688 753.488281 231.632812 C 753.320312 230.707031 753.105469 229.796875 752.84375 228.894531 C 752.582031 227.992188 752.273438 227.105469 751.921875 226.234375 C 751.570312 225.367188 751.171875 224.515625 750.734375 223.6875 C 750.296875 222.855469 749.816406 222.050781 749.292969 221.269531 C 748.792969 220.570312 748.261719 219.890625 747.699219 219.238281 C 747.136719 218.585938 746.546875 217.960938 745.925781 217.363281 C 745.308594 216.761719 744.664062 216.191406 743.996094 215.648438 C 743.324219 215.109375 742.632812 214.597656 741.914062 214.121094 C 741.199219 213.640625 740.464844 213.195312 739.707031 212.78125 C 738.949219 212.371094 738.175781 211.992188 737.386719 211.648438 C 736.597656 211.308594 735.792969 211 734.972656 210.730469 C 734.15625 210.460938 733.328125 210.226562 732.488281 210.03125 C 731.648438 209.835938 730.804688 209.679688 729.949219 209.558594 C 729.097656 209.441406 728.242188 209.359375 727.378906 209.316406 C 726.519531 209.277344 725.660156 209.273438 724.800781 209.308594 C 723.9375 209.34375 723.082031 209.417969 722.226562 209.53125 C 721.371094 209.644531 720.527344 209.796875 719.683594 209.984375 C 718.84375 210.175781 718.015625 210.402344 717.195312 210.664062 C 716.375 210.929688 715.570312 211.230469 714.777344 211.566406 C 713.984375 211.902344 713.207031 212.273438 712.449219 212.683594 L 571.753906 285.074219 C 571.234375 285.34375 570.703125 285.582031 570.160156 285.796875 C 569.617188 286.007812 569.0625 286.1875 568.5 286.339844 C 567.9375 286.492188 567.367188 286.613281 566.789062 286.707031 C 566.214844 286.796875 565.636719 286.859375 565.050781 286.886719 C 564.46875 286.917969 563.886719 286.914062 563.304688 286.882812 C 562.722656 286.847656 562.144531 286.785156 561.566406 286.691406 C 560.992188 286.597656 560.421875 286.46875 559.859375 286.316406 C 559.296875 286.160156 558.746094 285.972656 558.203125 285.757812 C 557.660156 285.542969 557.128906 285.300781 556.613281 285.03125 C 556.097656 284.757812 555.597656 284.460938 555.113281 284.136719 C 554.628906 283.8125 554.160156 283.460938 553.714844 283.085938 C 553.265625 282.714844 552.839844 282.316406 552.4375 281.894531 C 552.03125 281.476562 551.648438 281.035156 551.292969 280.574219 C 550.933594 280.113281 550.601562 279.632812 550.296875 279.136719 C 549.988281 278.640625 549.710938 278.128906 549.457031 277.605469 C 549.207031 277.078125 548.980469 276.539062 548.789062 275.988281 C 548.492188 275.167969 548.261719 274.328125 548.097656 273.46875 C 547.933594 272.613281 547.835938 271.746094 547.8125 270.875 C 547.785156 270 547.824219 269.128906 547.9375 268.265625 C 548.046875 267.398438 548.222656 266.546875 548.46875 265.707031 C 548.714844 264.867188 549.023438 264.054688 549.398438 263.265625 C 549.773438 262.476562 550.207031 261.71875 550.699219 261 C 551.191406 260.277344 551.738281 259.601562 552.339844 258.96875 C 552.941406 258.332031 553.585938 257.75 554.28125 257.21875 L 718.839844 138.390625 C 719.945312 137.585938 720.980469 136.707031 721.953125 135.746094 C 722.925781 134.785156 723.820312 133.753906 724.632812 132.660156 C 725.449219 131.5625 726.179688 130.410156 726.820312 129.203125 C 727.460938 128 728.007812 126.75 728.460938 125.460938 C 728.914062 124.171875 729.265625 122.855469 729.519531 121.511719 C 729.769531 120.167969 729.921875 118.816406 729.96875 117.449219 C 730.015625 116.085938 729.960938 114.722656 729.800781 113.367188 C 729.644531 112.007812 729.382812 110.671875 729.023438 109.351562 C 728.664062 108.035156 728.203125 106.75 727.648438 105.503906 C 727.09375 104.253906 726.445312 103.054688 725.710938 101.90625 C 724.972656 100.753906 724.152344 99.667969 723.25 98.640625 C 722.347656 97.613281 721.375 96.660156 720.328125 95.78125 C 719.28125 94.902344 718.175781 94.109375 717.007812 93.398438 C 715.839844 92.6875 714.628906 92.066406 713.367188 91.539062 C 712.105469 91.011719 710.8125 90.582031 709.488281 90.25 C 708.160156 89.921875 706.816406 89.691406 705.457031 89.5625 C 702.242188 89.339844 699.074219 89.648438 695.960938 90.484375 C 692.847656 91.324219 689.953125 92.648438 687.285156 94.457031 L 519.429688 204.292969 C 518.8125 204.726562 518.164062 205.101562 517.484375 205.425781 C 516.804688 205.75 516.105469 206.019531 515.382812 206.230469 C 514.65625 206.4375 513.921875 206.589844 513.175781 206.679688 C 512.429688 206.769531 511.679688 206.800781 510.925781 206.769531 C 510.171875 206.738281 509.429688 206.644531 508.691406 206.492188 C 507.953125 206.339844 507.234375 206.128906 506.53125 205.859375 C 505.828125 205.589844 505.152344 205.265625 504.5 204.886719 C 503.851562 204.503906 503.234375 204.074219 502.65625 203.59375 C 502.308594 203.28125 501.976562 202.949219 501.664062 202.597656 C 501.351562 202.25 501.058594 201.882812 500.785156 201.503906 C 500.511719 201.125 500.253906 200.730469 500.023438 200.324219 C 499.789062 199.917969 499.578125 199.5 499.386719 199.070312 C 499.195312 198.640625 499.03125 198.203125 498.886719 197.757812 C 498.742188 197.3125 498.621094 196.859375 498.523438 196.402344 C 498.425781 195.941406 498.351562 195.480469 498.304688 195.011719 C 498.253906 194.546875 498.230469 194.078125 498.230469 193.609375 C 498.230469 193.140625 498.253906 192.671875 498.304688 192.207031 C 498.351562 191.742188 498.425781 191.277344 498.523438 190.820312 C 498.621094 190.359375 498.742188 189.90625 498.886719 189.460938 C 499.03125 189.015625 499.195312 188.578125 499.386719 188.148438 C 499.578125 187.722656 499.789062 187.304688 500.023438 186.894531 C 500.253906 186.488281 500.511719 186.097656 500.785156 185.714844 C 501.058594 185.335938 501.351562 184.972656 501.664062 184.621094 C 501.976562 184.273438 502.308594 183.941406 502.65625 183.625 L 636.160156 54.8125 C 637.210938 53.832031 638.1875 52.777344 639.085938 51.652344 C 639.988281 50.527344 640.800781 49.34375 641.53125 48.105469 C 642.257812 46.863281 642.894531 45.574219 643.4375 44.242188 C 643.984375 42.90625 644.429688 41.542969 644.773438 40.144531 C 645.121094 38.746094 645.367188 37.332031 645.507812 35.898438 C 645.652344 34.464844 645.691406 33.03125 645.625 31.59375 C 645.5625 30.152344 645.394531 28.726562 645.125 27.3125 C 644.851562 25.898438 644.484375 24.511719 644.011719 23.148438 C 643.542969 21.789062 642.976562 20.46875 642.316406 19.191406 C 641.65625 17.910156 640.90625 16.683594 640.070312 15.511719 C 639.230469 14.34375 638.316406 13.238281 637.316406 12.199219 C 636.320312 11.160156 635.253906 10.195312 634.121094 9.3125 C 632.984375 8.425781 631.789062 7.625 630.539062 6.914062 C 629.289062 6.199219 627.992188 5.578125 626.652344 5.054688 C 625.3125 4.527344 623.941406 4.097656 622.539062 3.769531 C 621.136719 3.441406 619.71875 3.214844 618.285156 3.089844 C 616.019531 2.902344 613.761719 2.953125 611.507812 3.246094 C 609.253906 3.535156 607.054688 4.058594 604.910156 4.816406 C 602.769531 5.574219 600.730469 6.546875 598.792969 7.738281 C 596.855469 8.929688 595.066406 10.308594 593.421875 11.878906 L 416.28125 171.640625 L 413.488281 174.140625 C 413.003906 174.605469 412.570312 175.113281 412.191406 175.667969 C 411.808594 176.21875 411.488281 176.804688 411.226562 177.421875 C 410.964844 178.039062 410.765625 178.675781 410.632812 179.335938 C 410.496094 179.992188 410.429688 180.65625 410.429688 181.328125 C 410.429688 182 410.496094 182.664062 410.632812 183.320312 C 410.765625 183.980469 410.964844 184.617188 411.226562 185.234375 C 411.488281 185.851562 411.808594 186.4375 412.191406 186.988281 C 412.570312 187.542969 413.003906 188.050781 413.488281 188.519531 C 419.65625 193.578125 425.199219 199.25 430.117188 205.535156 C 435.035156 211.816406 439.210938 218.558594 442.644531 225.761719 C 443.757812 228.234375 444.765625 230.75 445.667969 233.304688 C 446.570312 235.863281 447.363281 238.453125 448.046875 241.078125 C 448.730469 243.699219 449.300781 246.347656 449.761719 249.019531 C 450.21875 251.691406 450.566406 254.378906 450.800781 257.082031 C 451.03125 259.78125 451.152344 262.488281 451.15625 265.199219 C 451.160156 267.910156 451.050781 270.617188 450.828125 273.320312 C 450.601562 276.023438 450.265625 278.710938 449.816406 281.382812 C 449.363281 284.058594 448.800781 286.707031 448.125 289.332031 C 447.453125 291.957031 446.667969 294.550781 445.773438 297.113281 C 444.882812 299.671875 443.882812 302.191406 442.777344 304.664062 C 441.667969 307.140625 440.460938 309.566406 439.152344 311.9375 C 437.839844 314.3125 436.433594 316.625 434.925781 318.878906 C 433.421875 321.136719 431.820312 323.324219 430.132812 325.441406 C 428.441406 327.5625 426.664062 329.605469 424.800781 331.578125 C 422.9375 333.546875 420.996094 335.433594 418.972656 337.238281 C 416.949219 339.046875 414.855469 340.761719 412.6875 342.390625 L 385.425781 363.0625 C 384.714844 363.6875 384.101562 364.398438 383.589844 365.195312 C 383.078125 365.996094 382.691406 366.847656 382.421875 367.757812 C 382.15625 368.667969 382.019531 369.597656 382.015625 370.546875 C 382.015625 371.492188 382.144531 372.421875 382.40625 373.335938 C 382.667969 374.246094 383.050781 375.101562 383.558594 375.90625 C 384.0625 376.707031 384.671875 377.421875 385.378906 378.050781 C 386.089844 378.679688 386.875 379.195312 387.730469 379.601562 C 388.585938 380.007812 389.484375 380.285156 390.421875 380.4375 L 645.046875 399.707031 C 650.167969 400.191406 655.265625 400.019531 660.339844 399.191406 C 665.414062 398.359375 670.300781 396.902344 675.003906 394.816406 C 692.578125 387.027344 717.339844 375.742188 735.8125 367.457031 C 736.519531 367.136719 737.210938 366.78125 737.882812 366.398438 C 738.558594 366.011719 739.210938 365.59375 739.84375 365.148438 C 740.476562 364.699219 741.089844 364.222656 741.675781 363.71875 C 742.265625 363.210938 742.828125 362.679688 743.367188 362.121094 C 743.90625 361.5625 744.414062 360.976562 744.898438 360.371094 C 745.378906 359.761719 745.832031 359.132812 746.253906 358.480469 C 746.675781 357.832031 747.066406 357.160156 747.425781 356.472656 C 747.785156 355.785156 748.109375 355.082031 748.402344 354.363281 C 748.691406 353.644531 748.949219 352.914062 749.171875 352.167969 C 749.394531 351.425781 749.582031 350.671875 749.730469 349.914062 C 749.882812 349.152344 749.996094 348.382812 750.074219 347.613281 C 750.152344 346.839844 750.191406 346.066406 750.195312 345.289062 C 750.199219 344.515625 750.167969 343.742188 750.097656 342.96875 C 750.027344 342.195312 749.921875 341.425781 749.777344 340.664062 C 749.636719 339.902344 749.457031 339.148438 749.242188 338.402344 C 749.027344 337.65625 748.777344 336.921875 748.496094 336.199219 Z M 748.496094 336.5 " fill-opacity="1" fill-rule="nonzero"/></svg>