<svg xmlns="http://www.w3.org/2000/svg" xmlns:xlink="http://www.w3.org/1999/xlink" width="1080" zoomAndPan="magnify" viewBox="0 0 810 809.999993" height="1080" preserveAspectRatio="xMidYMid meet" version="1.0"><defs><clipPath id="5332782dda"><path d="M 55.011719 225 L 650 225 L 650 809 L 55.011719 809 Z M 55.011719 225 " clip-rule="nonzero"/></clipPath></defs><g clip-path="url(#5332782dda)"><path fill="#000000" d="M 462.484375 808.007812 C 458.695312 808.015625 455.066406 807.25 451.605469 805.710938 C 417.066406 790.335938 326.027344 749.992188 227.105469 708.15625 C 190.984375 693.214844 156.679688 674.875 124.1875 653.136719 C 121.519531 651.300781 118.910156 649.382812 116.359375 647.386719 C 113.808594 645.394531 111.320312 643.320312 108.894531 641.175781 C 106.46875 639.027344 104.109375 636.808594 101.820312 634.519531 C 99.527344 632.230469 97.308594 629.871094 95.164062 627.445312 C 93.015625 625.019531 90.941406 622.53125 88.949219 619.980469 C 86.953125 617.429688 85.035156 614.820312 83.199219 612.152344 C 81.359375 609.484375 79.605469 606.761719 77.933594 603.988281 C 76.261719 601.214844 74.675781 598.390625 73.175781 595.519531 C 71.675781 592.648438 70.265625 589.734375 68.941406 586.777344 C 67.617188 583.820312 66.386719 580.824219 65.246094 577.792969 C 64.105469 574.761719 63.058594 571.695312 62.101562 568.601562 C 61.148438 565.503906 60.289062 562.382812 59.523438 559.234375 C 58.761719 556.085938 58.09375 552.917969 57.519531 549.730469 C 56.949219 546.542969 56.472656 543.339844 56.097656 540.121094 C 55.71875 536.902344 55.441406 533.675781 55.261719 530.441406 C 55.078125 527.207031 54.996094 523.96875 55.011719 520.730469 C 55.019531 517.613281 55.117188 514.5 55.304688 511.390625 C 55.492188 508.277344 55.765625 505.175781 56.132812 502.082031 C 56.5 498.984375 56.953125 495.90625 57.5 492.835938 C 58.042969 489.769531 58.675781 486.71875 59.394531 483.683594 C 60.117188 480.652344 60.921875 477.644531 61.816406 474.660156 C 62.710938 471.675781 63.691406 468.71875 64.753906 465.789062 C 65.820312 462.859375 66.96875 459.964844 68.199219 457.101562 C 69.429688 454.238281 70.746094 451.414062 72.140625 448.628906 C 73.535156 445.839844 75.007812 443.097656 76.5625 440.394531 C 78.117188 437.695312 79.746094 435.039062 81.453125 432.433594 C 83.160156 429.828125 84.941406 427.269531 86.792969 424.765625 C 88.648438 422.261719 90.574219 419.8125 92.570312 417.421875 C 94.5625 415.027344 96.628906 412.695312 98.757812 410.417969 C 100.886719 408.144531 103.082031 405.9375 105.339844 403.789062 C 107.597656 401.640625 109.917969 399.5625 112.292969 397.546875 C 114.671875 395.535156 117.105469 393.59375 119.597656 391.71875 L 332.417969 232.652344 C 333.515625 231.90625 334.652344 231.210938 335.816406 230.570312 C 336.984375 229.929688 338.175781 229.347656 339.398438 228.820312 C 340.621094 228.292969 341.863281 227.824219 343.132812 227.417969 C 344.398438 227.007812 345.679688 226.660156 346.980469 226.375 C 348.277344 226.089844 349.589844 225.867188 350.910156 225.703125 C 352.230469 225.542969 353.554688 225.445312 354.886719 225.410156 C 356.214844 225.375 357.542969 225.402344 358.871094 225.496094 C 360.199219 225.585938 361.519531 225.738281 362.832031 225.957031 C 364.144531 226.175781 365.441406 226.453125 366.730469 226.792969 C 368.015625 227.136719 369.28125 227.535156 370.53125 227.996094 C 371.777344 228.460938 373 228.980469 374.199219 229.558594 C 375.398438 230.136719 376.566406 230.769531 377.703125 231.457031 C 378.84375 232.148438 379.945312 232.890625 381.011719 233.683594 C 382.078125 234.476562 383.105469 235.320312 384.09375 236.210938 C 385.082031 237.105469 386.023438 238.042969 386.921875 239.023438 C 387.820312 240.003906 388.671875 241.027344 389.472656 242.089844 C 390.273438 243.152344 391.019531 244.25 391.714844 245.386719 C 392.414062 246.519531 393.054688 247.683594 393.640625 248.878906 C 394.222656 250.074219 394.75 251.296875 395.222656 252.539062 C 395.691406 253.785156 396.097656 255.050781 396.449219 256.335938 C 396.796875 257.617188 397.085938 258.917969 397.308594 260.230469 C 397.535156 261.539062 397.699219 262.859375 397.796875 264.1875 C 397.898438 265.511719 397.933594 266.84375 397.90625 268.171875 C 397.882812 269.503906 397.792969 270.828125 397.636719 272.152344 C 397.484375 273.472656 397.269531 274.785156 396.992188 276.085938 C 396.714844 277.390625 396.375 278.675781 395.976562 279.945312 C 395.574219 281.210938 395.117188 282.460938 394.597656 283.6875 C 394.078125 284.910156 393.503906 286.109375 392.871094 287.28125 C 392.238281 288.449219 391.550781 289.589844 390.808594 290.695312 C 390.070312 291.800781 389.277344 292.867188 388.433594 293.898438 C 387.589844 294.925781 386.703125 295.914062 385.765625 296.859375 C 384.828125 297.804688 383.847656 298.703125 382.828125 299.554688 L 288.195312 371.550781 C 286.925781 372.515625 285.738281 373.574219 284.636719 374.726562 C 283.535156 375.882812 282.535156 377.117188 281.628906 378.429688 C 280.726562 379.746094 279.933594 381.125 279.246094 382.566406 C 278.5625 384.007812 278 385.492188 277.550781 387.023438 C 277.105469 388.558594 276.785156 390.113281 276.585938 391.699219 C 276.386719 393.28125 276.316406 394.871094 276.375 396.464844 C 276.429688 398.058594 276.613281 399.640625 276.921875 401.207031 C 277.230469 402.769531 277.660156 404.300781 278.214844 405.796875 C 278.691406 407.125 279.257812 408.410156 279.917969 409.65625 C 280.578125 410.90625 281.320312 412.097656 282.148438 413.238281 C 282.972656 414.382812 283.878906 415.457031 284.855469 416.472656 C 285.835938 417.488281 286.882812 418.425781 287.992188 419.292969 C 289.105469 420.160156 290.273438 420.941406 291.496094 421.644531 C 292.71875 422.34375 293.984375 422.957031 295.292969 423.480469 C 296.601562 424.003906 297.941406 424.429688 299.3125 424.761719 C 300.679688 425.097656 302.066406 425.332031 303.46875 425.46875 L 621.601562 455.425781 C 623.074219 455.515625 624.535156 455.710938 625.976562 456.011719 C 627.421875 456.316406 628.835938 456.726562 630.222656 457.238281 C 631.605469 457.75 632.945312 458.363281 634.238281 459.074219 C 635.535156 459.785156 636.769531 460.585938 637.945312 461.480469 C 639.117188 462.375 640.222656 463.351562 641.253906 464.40625 C 642.285156 465.464844 643.230469 466.589844 644.097656 467.789062 C 644.960938 468.984375 645.734375 470.238281 646.410156 471.550781 C 647.089844 472.863281 647.667969 474.214844 648.148438 475.613281 C 648.628906 477.011719 649 478.433594 649.269531 479.886719 C 649.535156 481.339844 649.695312 482.804688 649.75 484.28125 C 649.800781 485.753906 649.742188 487.226562 649.578125 488.695312 C 649.410156 490.160156 649.140625 491.609375 648.757812 493.035156 C 648.378906 494.464844 647.894531 495.855469 647.3125 497.210938 C 646.726562 498.566406 646.042969 499.871094 645.265625 501.125 C 644.484375 502.382812 643.621094 503.570312 642.664062 504.699219 C 641.710938 505.824219 640.679688 506.875 639.566406 507.847656 C 638.046875 509.269531 636.402344 510.519531 634.625 511.601562 C 632.851562 512.6875 630.988281 513.582031 629.03125 514.285156 C 627.074219 514.988281 625.066406 515.488281 623.007812 515.78125 C 620.949219 516.078125 618.882812 516.164062 616.808594 516.035156 L 431.738281 504.054688 C 430.914062 503.992188 430.089844 504.003906 429.265625 504.09375 C 428.441406 504.183594 427.636719 504.351562 426.84375 504.59375 C 426.050781 504.835938 425.289062 505.148438 424.554688 505.53125 C 423.820312 505.917969 423.128906 506.367188 422.480469 506.878906 C 421.832031 507.394531 421.234375 507.964844 420.691406 508.589844 C 420.148438 509.214844 419.667969 509.886719 419.25 510.601562 C 418.835938 511.316406 418.488281 512.0625 418.207031 512.84375 C 417.929688 513.625 417.730469 514.425781 417.601562 515.242188 C 417.472656 516.0625 417.421875 516.882812 417.449219 517.710938 C 417.472656 518.539062 417.574219 519.359375 417.753906 520.167969 C 417.933594 520.976562 418.1875 521.761719 418.511719 522.523438 C 418.839844 523.285156 419.230469 524.007812 419.695312 524.695312 C 420.15625 525.382812 420.675781 526.023438 421.257812 526.613281 C 421.839844 527.203125 422.46875 527.734375 423.148438 528.207031 C 423.828125 528.679688 424.546875 529.085938 425.304688 529.421875 C 426.058594 529.761719 426.839844 530.023438 427.648438 530.214844 L 623.597656 580.144531 C 624.410156 580.386719 625.214844 580.667969 626.003906 580.988281 C 626.789062 581.304688 627.5625 581.660156 628.316406 582.054688 C 629.074219 582.445312 629.808594 582.871094 630.523438 583.332031 C 631.238281 583.792969 631.929688 584.289062 632.597656 584.8125 C 633.265625 585.339844 633.90625 585.898438 634.523438 586.484375 C 635.136719 587.070312 635.726562 587.6875 636.28125 588.328125 C 636.839844 588.972656 637.367188 589.636719 637.859375 590.332031 C 638.355469 591.023438 638.816406 591.738281 639.246094 592.472656 C 639.671875 593.207031 640.0625 593.960938 640.421875 594.734375 C 640.777344 595.507812 641.097656 596.292969 641.378906 597.097656 C 641.660156 597.898438 641.902344 598.714844 642.109375 599.539062 C 642.316406 600.367188 642.480469 601.199219 642.605469 602.039062 C 642.734375 602.882812 642.820312 603.726562 642.867188 604.578125 C 642.914062 605.425781 642.921875 606.277344 642.886719 607.125 C 642.855469 607.976562 642.78125 608.824219 642.667969 609.667969 C 642.554688 610.511719 642.402344 611.347656 642.210938 612.175781 C 642.019531 613.003906 641.789062 613.820312 641.519531 614.628906 C 641.25 615.4375 640.945312 616.230469 640.601562 617.007812 C 640.257812 617.785156 639.878906 618.546875 639.464844 619.289062 C 639.046875 620.03125 638.597656 620.753906 638.113281 621.453125 C 637.632812 622.152344 637.117188 622.828125 636.570312 623.480469 C 636.023438 624.132812 635.445312 624.753906 634.839844 625.351562 C 634.234375 625.949219 633.601562 626.515625 632.941406 627.054688 C 632.28125 627.589844 631.597656 628.097656 630.890625 628.570312 C 630.183594 629.042969 629.457031 629.480469 628.707031 629.882812 C 627.957031 630.289062 627.191406 630.65625 626.410156 630.988281 C 625.625 631.320312 624.828125 631.613281 624.019531 631.871094 C 623.207031 632.128906 622.386719 632.347656 621.554688 632.527344 C 620.722656 632.703125 619.886719 632.84375 619.039062 632.945312 C 618.195312 633.042969 617.347656 633.105469 616.496094 633.125 C 615.648438 633.144531 614.796875 633.125 613.949219 633.066406 C 613.101562 633.003906 612.257812 632.90625 611.417969 632.765625 L 412.773438 591.625 C 411.757812 591.390625 410.730469 591.25 409.691406 591.210938 C 408.652344 591.167969 407.617188 591.226562 406.585938 591.382812 C 405.558594 591.542969 404.554688 591.792969 403.570312 592.144531 C 402.589844 592.492188 401.652344 592.929688 400.753906 593.457031 C 399.855469 593.984375 399.015625 594.59375 398.234375 595.28125 C 397.453125 595.96875 396.746094 596.726562 396.109375 597.550781 C 395.46875 598.371094 394.917969 599.25 394.445312 600.179688 C 393.976562 601.109375 393.597656 602.074219 393.3125 603.074219 C 393.027344 604.074219 392.835938 605.09375 392.746094 606.132812 C 392.65625 607.171875 392.660156 608.207031 392.769531 609.242188 C 392.875 610.277344 393.078125 611.296875 393.378906 612.292969 C 393.675781 613.289062 394.070312 614.25 394.550781 615.171875 C 395.035156 616.09375 395.601562 616.964844 396.25 617.777344 C 396.898438 618.59375 397.617188 619.339844 398.410156 620.015625 C 399.199219 620.691406 400.046875 621.289062 400.953125 621.804688 C 401.859375 622.320312 402.804688 622.746094 403.789062 623.078125 L 553.523438 678.199219 C 554.375 678.488281 555.214844 678.820312 556.039062 679.191406 C 556.859375 679.5625 557.664062 679.972656 558.445312 680.425781 C 559.226562 680.875 559.984375 681.363281 560.71875 681.886719 C 561.453125 682.414062 562.160156 682.972656 562.839844 683.570312 C 563.519531 684.164062 564.167969 684.789062 564.785156 685.449219 C 565.402344 686.105469 565.984375 686.792969 566.535156 687.507812 C 567.085938 688.226562 567.597656 688.964844 568.078125 689.730469 C 568.554688 690.5 568.992188 691.285156 569.390625 692.09375 C 569.792969 692.90625 570.152344 693.730469 570.46875 694.578125 C 570.789062 695.421875 571.066406 696.28125 571.300781 697.152344 C 571.535156 698.023438 571.726562 698.90625 571.875 699.796875 C 572.019531 700.6875 572.125 701.582031 572.183594 702.484375 C 572.246094 703.382812 572.261719 704.285156 572.230469 705.1875 C 572.203125 706.089844 572.128906 706.988281 572.011719 707.882812 C 571.894531 708.777344 571.734375 709.667969 571.53125 710.546875 C 571.328125 711.425781 571.082031 712.292969 570.792969 713.148438 C 570.5 714.003906 570.171875 714.84375 569.800781 715.664062 C 569.429688 716.488281 569.015625 717.289062 568.566406 718.070312 C 568.117188 718.855469 567.628906 719.613281 567.101562 720.347656 C 566.578125 721.082031 566.019531 721.789062 565.421875 722.46875 C 564.828125 723.148438 564.203125 723.796875 563.542969 724.414062 C 562.886719 725.03125 562.199219 725.613281 561.484375 726.164062 C 560.769531 726.714844 560.027344 727.230469 559.261719 727.707031 C 558.496094 728.183594 557.707031 728.625 556.898438 729.023438 C 556.089844 729.421875 555.261719 729.78125 554.417969 730.101562 C 553.574219 730.421875 552.714844 730.695312 551.84375 730.929688 C 550.972656 731.164062 550.09375 731.355469 549.203125 731.503906 C 548.3125 731.652344 547.414062 731.757812 546.515625 731.816406 C 545.613281 731.875 544.714844 731.890625 543.8125 731.863281 C 542.910156 731.835938 542.011719 731.761719 541.117188 731.644531 C 540.222656 731.527344 539.332031 731.367188 538.453125 731.164062 C 537.574219 730.957031 536.707031 730.710938 535.851562 730.421875 L 355.773438 675.105469 C 354.84375 674.816406 353.890625 674.652344 352.917969 674.617188 C 351.945312 674.578125 350.984375 674.667969 350.035156 674.882812 C 349.085938 675.101562 348.179688 675.4375 347.316406 675.894531 C 346.457031 676.347656 345.667969 676.90625 344.953125 677.570312 C 344.242188 678.234375 343.625 678.980469 343.109375 679.804688 C 342.589844 680.628906 342.1875 681.507812 341.902344 682.441406 C 341.617188 683.371094 341.457031 684.324219 341.421875 685.300781 C 341.390625 686.273438 341.480469 687.234375 341.699219 688.183594 C 342.097656 689.8125 342.820312 691.28125 343.867188 692.589844 C 344.914062 693.898438 346.1875 694.925781 347.691406 695.671875 L 474.261719 756.484375 C 475.917969 757.269531 477.476562 758.214844 478.9375 759.324219 C 480.398438 760.429688 481.730469 761.675781 482.933594 763.058594 C 484.136719 764.441406 485.183594 765.933594 486.078125 767.535156 C 486.972656 769.136719 487.691406 770.8125 488.238281 772.558594 C 488.402344 773.070312 488.554688 773.582031 488.691406 774.097656 C 488.824219 774.613281 488.945312 775.136719 489.050781 775.660156 C 489.152344 776.183594 489.242188 776.710938 489.316406 777.238281 C 489.390625 777.765625 489.445312 778.296875 489.488281 778.832031 C 489.53125 779.363281 489.554688 779.898438 489.566406 780.429688 C 489.578125 780.964844 489.570312 781.5 489.550781 782.03125 C 489.527344 782.566406 489.492188 783.097656 489.4375 783.632812 C 489.386719 784.164062 489.316406 784.691406 489.230469 785.21875 C 489.148438 785.746094 489.046875 786.273438 488.933594 786.792969 C 488.816406 787.316406 488.6875 787.832031 488.539062 788.347656 C 488.394531 788.859375 488.234375 789.371094 488.058594 789.875 C 487.882812 790.378906 487.691406 790.875 487.484375 791.371094 C 487.28125 791.863281 487.058594 792.347656 486.824219 792.828125 C 486.589844 793.308594 486.34375 793.78125 486.078125 794.246094 C 485.816406 794.710938 485.542969 795.167969 485.25 795.617188 C 484.960938 796.066406 484.660156 796.507812 484.34375 796.9375 C 484.027344 797.371094 483.699219 797.789062 483.359375 798.203125 C 483.019531 798.613281 482.667969 799.015625 482.304688 799.40625 C 481.9375 799.796875 481.5625 800.175781 481.175781 800.542969 C 480.789062 800.914062 480.390625 801.269531 479.984375 801.613281 C 479.578125 801.960938 479.160156 802.292969 478.730469 802.613281 C 478.304688 802.933594 477.867188 803.238281 477.421875 803.535156 C 476.976562 803.828125 476.523438 804.109375 476.058594 804.375 C 475.597656 804.644531 475.128906 804.898438 474.648438 805.136719 C 474.171875 805.375 473.6875 805.601562 473.199219 805.8125 C 472.707031 806.023438 472.210938 806.21875 471.707031 806.402344 C 471.207031 806.582031 470.699219 806.75 470.1875 806.898438 C 469.675781 807.050781 469.160156 807.1875 468.636719 807.308594 C 468.117188 807.429688 467.59375 807.535156 467.066406 807.625 C 466.542969 807.714844 466.011719 807.789062 465.480469 807.847656 C 464.953125 807.90625 464.417969 807.949219 463.886719 807.976562 C 463.351562 808 462.820312 808.011719 462.285156 808.007812 Z M 462.484375 808.007812 " fill-opacity="1" fill-rule="nonzero"/></g><path fill="#000000" d="M 303.867188 188.617188 C 304.726562 187.984375 305.507812 187.265625 306.214844 186.46875 C 306.921875 185.667969 307.539062 184.804688 308.0625 183.875 C 308.585938 182.945312 309.007812 181.972656 309.328125 180.953125 C 309.648438 179.9375 309.855469 178.894531 309.957031 177.832031 L 318.640625 82.074219 C 318.761719 80.761719 318.816406 79.445312 318.8125 78.128906 C 318.808594 76.808594 318.742188 75.496094 318.613281 74.183594 C 318.484375 72.871094 318.292969 71.566406 318.042969 70.273438 C 317.789062 68.980469 317.476562 67.699219 317.105469 66.4375 C 316.734375 65.171875 316.300781 63.925781 315.8125 62.703125 C 315.324219 61.480469 314.777344 60.28125 314.175781 59.109375 C 313.570312 57.9375 312.914062 56.796875 312.203125 55.683594 C 311.496094 54.574219 310.734375 53.5 309.921875 52.460938 C 309.109375 51.421875 308.253906 50.425781 307.347656 49.464844 C 306.441406 48.507812 305.492188 47.597656 304.5 46.726562 C 303.511719 45.859375 302.480469 45.039062 301.410156 44.269531 C 300.34375 43.496094 299.238281 42.777344 298.101562 42.113281 C 296.964844 41.445312 295.800781 40.832031 294.605469 40.277344 C 293.410156 39.71875 292.195312 39.21875 290.953125 38.777344 C 289.710938 38.335938 288.453125 37.953125 287.175781 37.628906 C 285.898438 37.304688 284.605469 37.042969 283.304688 36.839844 C 281.902344 36.621094 280.492188 36.472656 279.074219 36.394531 C 277.652344 36.316406 276.234375 36.3125 274.816406 36.382812 C 273.398438 36.449219 271.984375 36.589844 270.582031 36.800781 C 269.175781 37.011719 267.785156 37.296875 266.410156 37.648438 C 265.035156 38.003906 263.679688 38.425781 262.347656 38.917969 C 261.015625 39.40625 259.710938 39.964844 258.433594 40.589844 C 257.160156 41.214844 255.917969 41.902344 254.710938 42.652344 C 253.507812 43.40625 252.34375 44.214844 251.21875 45.085938 C 250.09375 45.953125 249.019531 46.878906 247.988281 47.859375 C 246.960938 48.835938 245.984375 49.867188 245.058594 50.945312 C 244.136719 52.023438 243.269531 53.148438 242.457031 54.3125 C 241.648438 55.480469 240.898438 56.6875 240.210938 57.929688 C 239.523438 59.171875 238.902344 60.449219 238.34375 61.753906 C 237.789062 63.0625 237.296875 64.394531 236.875 65.75 C 236.453125 67.109375 236.101562 68.484375 235.820312 69.875 C 235.539062 71.269531 235.328125 72.671875 235.191406 74.085938 L 218.71875 239.84375 C 218.632812 240.453125 218.636719 241.066406 218.738281 241.675781 C 218.835938 242.289062 219.023438 242.871094 219.300781 243.421875 C 219.578125 243.976562 219.929688 244.476562 220.359375 244.921875 C 220.785156 245.367188 221.273438 245.742188 221.8125 246.039062 C 222.355469 246.335938 222.929688 246.546875 223.535156 246.671875 C 224.140625 246.792969 224.753906 246.824219 225.367188 246.761719 C 225.984375 246.699219 226.574219 246.546875 227.144531 246.300781 C 227.710938 246.058594 228.230469 245.734375 228.703125 245.335938 Z M 303.867188 188.617188 " fill-opacity="1" fill-rule="nonzero"/><path fill="#000000" d="M 748.273438 336.5 C 747.980469 335.75 747.648438 335.011719 747.285156 334.292969 C 746.917969 333.574219 746.515625 332.875 746.082031 332.195312 C 745.644531 331.515625 745.175781 330.859375 744.675781 330.226562 C 744.175781 329.59375 743.644531 328.988281 743.085938 328.40625 C 742.523438 327.828125 741.9375 327.273438 741.320312 326.753906 C 740.707031 326.230469 740.066406 325.738281 739.402344 325.28125 C 738.738281 324.820312 738.054688 324.394531 737.347656 324.003906 C 736.644531 323.613281 735.921875 323.257812 735.179688 322.9375 C 734.4375 322.617188 733.683594 322.335938 732.914062 322.089844 C 732.144531 321.847656 731.367188 321.640625 730.578125 321.472656 C 729.789062 321.304688 728.992188 321.175781 728.191406 321.085938 C 727.386719 321 726.582031 320.949219 725.777344 320.941406 C 724.96875 320.929688 724.164062 320.960938 723.359375 321.03125 C 722.558594 321.101562 721.757812 321.210938 720.964844 321.363281 C 720.171875 321.511719 719.390625 321.699219 718.613281 321.925781 C 717.839844 322.152344 717.078125 322.417969 716.332031 322.722656 L 586.761719 375.542969 C 585.960938 375.882812 585.132812 376.128906 584.277344 376.273438 C 583.417969 376.417969 582.554688 376.457031 581.6875 376.398438 C 580.820312 376.335938 579.972656 376.175781 579.140625 375.914062 C 578.3125 375.648438 577.523438 375.292969 576.78125 374.84375 C 576.046875 374.453125 575.367188 373.988281 574.738281 373.4375 C 574.113281 372.890625 573.558594 372.28125 573.074219 371.605469 C 572.585938 370.929688 572.1875 370.207031 571.867188 369.441406 C 571.550781 368.671875 571.324219 367.875 571.191406 367.054688 C 571.027344 365.910156 571.042969 364.769531 571.234375 363.628906 C 571.425781 362.492188 571.785156 361.40625 572.3125 360.378906 C 572.839844 359.351562 573.511719 358.425781 574.324219 357.605469 C 575.136719 356.785156 576.054688 356.109375 577.078125 355.574219 L 739.988281 260.414062 C 740.800781 259.941406 741.585938 259.429688 742.347656 258.878906 C 743.105469 258.328125 743.835938 257.738281 744.535156 257.113281 C 745.234375 256.484375 745.898438 255.824219 746.53125 255.132812 C 747.164062 254.4375 747.757812 253.710938 748.316406 252.957031 C 748.875 252.203125 749.390625 251.421875 749.871094 250.613281 C 750.347656 249.804688 750.785156 248.976562 751.175781 248.121094 C 751.570312 247.269531 751.917969 246.398438 752.222656 245.511719 C 752.527344 244.625 752.785156 243.722656 753 242.808594 C 753.210938 241.894531 753.375 240.96875 753.492188 240.039062 C 753.613281 239.105469 753.683594 238.171875 753.703125 237.234375 C 753.726562 236.292969 753.699219 235.355469 753.628906 234.421875 C 753.554688 233.484375 753.433594 232.554688 753.265625 231.632812 C 753.097656 230.707031 752.882812 229.796875 752.621094 228.894531 C 752.359375 227.992188 752.050781 227.105469 751.699219 226.234375 C 751.347656 225.367188 750.953125 224.515625 750.511719 223.6875 C 750.074219 222.855469 749.59375 222.050781 749.074219 221.269531 C 748.570312 220.570312 748.039062 219.890625 747.476562 219.238281 C 746.917969 218.585938 746.324219 217.960938 745.707031 217.363281 C 745.089844 216.761719 744.445312 216.191406 743.773438 215.648438 C 743.105469 215.109375 742.414062 214.597656 741.695312 214.121094 C 740.980469 213.640625 740.246094 213.195312 739.488281 212.78125 C 738.734375 212.371094 737.960938 211.992188 737.167969 211.648438 C 736.378906 211.308594 735.574219 211 734.757812 210.730469 C 733.941406 210.460938 733.113281 210.226562 732.273438 210.03125 C 731.433594 209.835938 730.589844 209.679688 729.734375 209.558594 C 728.882812 209.441406 728.027344 209.359375 727.167969 209.316406 C 726.308594 209.277344 725.445312 209.273438 724.585938 209.308594 C 723.726562 209.34375 722.867188 209.417969 722.015625 209.53125 C 721.160156 209.644531 720.3125 209.796875 719.472656 209.984375 C 718.632812 210.175781 717.804688 210.402344 716.984375 210.664062 C 716.164062 210.929688 715.359375 211.230469 714.566406 211.566406 C 713.773438 211.902344 712.996094 212.273438 712.238281 212.683594 L 571.589844 285.074219 C 571.070312 285.34375 570.539062 285.582031 569.996094 285.796875 C 569.453125 286.007812 568.898438 286.1875 568.335938 286.339844 C 567.773438 286.492188 567.203125 286.613281 566.628906 286.707031 C 566.050781 286.796875 565.472656 286.859375 564.890625 286.886719 C 564.308594 286.917969 563.726562 286.914062 563.144531 286.882812 C 562.5625 286.847656 561.980469 286.785156 561.40625 286.691406 C 560.832031 286.597656 560.261719 286.46875 559.699219 286.316406 C 559.136719 286.160156 558.585938 285.972656 558.042969 285.757812 C 557.5 285.542969 556.972656 285.300781 556.453125 285.03125 C 555.9375 284.757812 555.4375 284.460938 554.953125 284.136719 C 554.46875 283.8125 554.003906 283.460938 553.554688 283.085938 C 553.109375 282.714844 552.683594 282.316406 552.277344 281.894531 C 551.871094 281.476562 551.492188 281.035156 551.132812 280.574219 C 550.777344 280.113281 550.445312 279.632812 550.136719 279.136719 C 549.832031 278.640625 549.550781 278.128906 549.300781 277.605469 C 549.046875 277.078125 548.824219 276.539062 548.628906 275.988281 C 548.335938 275.167969 548.105469 274.328125 547.941406 273.46875 C 547.777344 272.613281 547.679688 271.746094 547.652344 270.875 C 547.628906 270 547.667969 269.128906 547.777344 268.265625 C 547.890625 267.398438 548.066406 266.546875 548.3125 265.707031 C 548.558594 264.867188 548.867188 264.054688 549.242188 263.265625 C 549.613281 262.476562 550.046875 261.71875 550.542969 261 C 551.035156 260.277344 551.582031 259.601562 552.183594 258.96875 C 552.78125 258.332031 553.429688 257.75 554.121094 257.21875 L 718.628906 138.390625 C 719.730469 137.585938 720.769531 136.707031 721.742188 135.746094 C 722.710938 134.785156 723.605469 133.753906 724.421875 132.660156 C 725.238281 131.5625 725.964844 130.410156 726.605469 129.203125 C 727.246094 128 727.792969 126.75 728.246094 125.460938 C 728.699219 124.171875 729.050781 122.855469 729.304688 121.511719 C 729.554688 120.167969 729.707031 118.816406 729.753906 117.449219 C 729.800781 116.085938 729.746094 114.722656 729.589844 113.367188 C 729.429688 112.007812 729.167969 110.671875 728.808594 109.351562 C 728.449219 108.035156 727.988281 106.75 727.433594 105.503906 C 726.878906 104.253906 726.234375 103.054688 725.496094 101.90625 C 724.757812 100.753906 723.941406 99.667969 723.039062 98.640625 C 722.136719 97.613281 721.160156 96.660156 720.117188 95.78125 C 719.070312 94.902344 717.964844 94.109375 716.796875 93.398438 C 715.628906 92.6875 714.417969 92.066406 713.15625 91.539062 C 711.898438 91.011719 710.605469 90.582031 709.277344 90.25 C 707.953125 89.921875 706.609375 89.691406 705.25 89.5625 C 702.035156 89.339844 698.871094 89.648438 695.757812 90.484375 C 692.644531 91.324219 689.753906 92.648438 687.082031 94.457031 L 519.28125 204.292969 C 518.664062 204.726562 518.015625 205.101562 517.335938 205.425781 C 516.660156 205.75 515.957031 206.019531 515.234375 206.230469 C 514.511719 206.4375 513.777344 206.589844 513.03125 206.679688 C 512.28125 206.769531 511.53125 206.800781 510.78125 206.769531 C 510.027344 206.738281 509.285156 206.644531 508.546875 206.492188 C 507.808594 206.339844 507.089844 206.128906 506.386719 205.859375 C 505.683594 205.589844 505.007812 205.265625 504.359375 204.886719 C 503.707031 204.503906 503.09375 204.074219 502.511719 203.59375 C 502.164062 203.28125 501.835938 202.949219 501.523438 202.597656 C 501.210938 202.25 500.917969 201.882812 500.644531 201.503906 C 500.367188 201.125 500.113281 200.730469 499.878906 200.324219 C 499.648438 199.917969 499.433594 199.5 499.246094 199.070312 C 499.054688 198.640625 498.886719 198.203125 498.746094 197.757812 C 498.601562 197.3125 498.480469 196.859375 498.382812 196.402344 C 498.285156 195.941406 498.210938 195.480469 498.164062 195.011719 C 498.113281 194.546875 498.089844 194.078125 498.089844 193.609375 C 498.089844 193.140625 498.113281 192.671875 498.164062 192.207031 C 498.210938 191.742188 498.285156 191.277344 498.382812 190.820312 C 498.480469 190.359375 498.601562 189.90625 498.746094 189.460938 C 498.886719 189.015625 499.054688 188.578125 499.246094 188.148438 C 499.433594 187.722656 499.648438 187.304688 499.878906 186.894531 C 500.113281 186.488281 500.367188 186.097656 500.644531 185.714844 C 500.917969 185.335938 501.210938 184.972656 501.523438 184.621094 C 501.835938 184.273438 502.164062 183.941406 502.511719 183.625 L 635.976562 54.8125 C 637.027344 53.832031 638 52.777344 638.902344 51.652344 C 639.800781 50.527344 640.613281 49.34375 641.34375 48.105469 C 642.074219 46.863281 642.707031 45.574219 643.253906 44.242188 C 643.796875 42.90625 644.242188 41.542969 644.585938 40.144531 C 644.933594 38.746094 645.179688 37.332031 645.320312 35.898438 C 645.460938 34.464844 645.5 33.03125 645.4375 31.59375 C 645.371094 30.152344 645.207031 28.726562 644.933594 27.3125 C 644.664062 25.898438 644.296875 24.511719 643.824219 23.148438 C 643.355469 21.789062 642.789062 20.46875 642.128906 19.191406 C 641.46875 17.910156 640.71875 16.683594 639.882812 15.511719 C 639.046875 14.34375 638.128906 13.238281 637.132812 12.199219 C 636.136719 11.160156 635.070312 10.195312 633.933594 9.3125 C 632.800781 8.425781 631.605469 7.625 630.355469 6.914062 C 629.105469 6.199219 627.8125 5.578125 626.472656 5.054688 C 625.132812 4.527344 623.761719 4.097656 622.359375 3.769531 C 620.957031 3.441406 619.539062 3.214844 618.105469 3.089844 C 615.84375 2.902344 613.582031 2.953125 611.328125 3.246094 C 609.078125 3.535156 606.878906 4.058594 604.738281 4.816406 C 602.59375 5.574219 600.554688 6.546875 598.621094 7.738281 C 596.683594 8.929688 594.894531 10.308594 593.25 11.878906 L 416.167969 171.640625 L 413.371094 174.140625 C 412.890625 174.605469 412.457031 175.113281 412.078125 175.667969 C 411.695312 176.21875 411.375 176.804688 411.113281 177.421875 C 410.851562 178.039062 410.652344 178.675781 410.519531 179.335938 C 410.382812 179.992188 410.316406 180.65625 410.316406 181.328125 C 410.316406 182 410.382812 182.664062 410.519531 183.320312 C 410.652344 183.980469 410.851562 184.617188 411.113281 185.234375 C 411.375 185.851562 411.695312 186.4375 412.078125 186.988281 C 412.457031 187.542969 412.890625 188.050781 413.371094 188.519531 C 419.539062 193.578125 425.082031 199.25 429.996094 205.535156 C 434.914062 211.816406 439.089844 218.558594 442.519531 225.761719 C 443.632812 228.234375 444.640625 230.75 445.542969 233.304688 C 446.445312 235.863281 447.238281 238.453125 447.921875 241.078125 C 448.605469 243.699219 449.175781 246.347656 449.632812 249.019531 C 450.09375 251.691406 450.441406 254.378906 450.671875 257.082031 C 450.90625 259.78125 451.023438 262.488281 451.03125 265.199219 C 451.035156 267.910156 450.925781 270.617188 450.699219 273.320312 C 450.476562 276.023438 450.140625 278.710938 449.6875 281.382812 C 449.238281 284.058594 448.675781 286.707031 448 289.332031 C 447.328125 291.957031 446.542969 294.550781 445.652344 297.113281 C 444.757812 299.671875 443.757812 302.191406 442.652344 304.664062 C 441.546875 307.140625 440.339844 309.566406 439.027344 311.9375 C 437.71875 314.3125 436.3125 316.625 434.804688 318.878906 C 433.300781 321.136719 431.703125 323.324219 430.011719 325.441406 C 428.320312 327.5625 426.546875 329.605469 424.683594 331.578125 C 422.820312 333.546875 420.878906 335.433594 418.855469 337.238281 C 416.835938 339.046875 414.742188 340.761719 412.574219 342.390625 L 385.324219 363.0625 C 384.609375 363.6875 383.996094 364.398438 383.484375 365.195312 C 382.976562 365.996094 382.585938 366.847656 382.320312 367.757812 C 382.050781 368.667969 381.914062 369.597656 381.914062 370.546875 C 381.910156 371.492188 382.039062 372.421875 382.300781 373.335938 C 382.5625 374.246094 382.945312 375.101562 383.453125 375.90625 C 383.957031 376.707031 384.566406 377.421875 385.273438 378.050781 C 385.984375 378.679688 386.769531 379.195312 387.625 379.601562 C 388.480469 380.007812 389.378906 380.285156 390.3125 380.4375 L 644.859375 399.707031 C 649.976562 400.191406 655.074219 400.019531 660.148438 399.191406 C 665.222656 398.359375 670.105469 396.902344 674.804688 394.816406 C 692.375 387.027344 717.128906 375.742188 735.597656 367.457031 C 736.304688 367.136719 736.992188 366.78125 737.667969 366.398438 C 738.339844 366.011719 738.992188 365.59375 739.625 365.148438 C 740.261719 364.699219 740.871094 364.222656 741.460938 363.71875 C 742.046875 363.210938 742.609375 362.679688 743.148438 362.121094 C 743.6875 361.5625 744.195312 360.976562 744.675781 360.371094 C 745.160156 359.761719 745.613281 359.132812 746.035156 358.480469 C 746.457031 357.832031 746.847656 357.160156 747.207031 356.472656 C 747.5625 355.785156 747.890625 355.082031 748.179688 354.363281 C 748.472656 353.644531 748.730469 352.914062 748.949219 352.167969 C 749.171875 351.425781 749.359375 350.671875 749.511719 349.914062 C 749.660156 349.152344 749.773438 348.382812 749.851562 347.613281 C 749.929688 346.839844 749.96875 346.066406 749.972656 345.289062 C 749.980469 344.515625 749.945312 343.742188 749.875 342.96875 C 749.804688 342.195312 749.699219 341.425781 749.558594 340.664062 C 749.414062 339.902344 749.234375 339.148438 749.023438 338.402344 C 748.808594 337.65625 748.558594 336.921875 748.273438 336.199219 Z M 748.273438 336.5 " fill-opacity="1" fill-rule="nonzero"/></svg>