<svg xmlns="http://www.w3.org/2000/svg" xmlns:xlink="http://www.w3.org/1999/xlink" width="1920" zoomAndPan="magnify" viewBox="0 0 1440 809.999993" height="1080" preserveAspectRatio="xMidYMid meet" version="1.0"><defs><g/></defs><g fill="#000000" fill-opacity="1"><g transform="translate(30.265343, 319.856483)"><g><path d="M 160.109375 3.671875 C 145.441406 3.671875 132.238281 2.164062 120.5 -0.84375 C 108.769531 -3.863281 98.75 -8.1875 90.4375 -13.8125 C 82.125 -19.4375 75.769531 -26.15625 71.375 -33.96875 C 66.976562 -41.789062 64.78125 -50.429688 64.78125 -59.890625 C 64.78125 -69.335938 66.976562 -77.929688 71.375 -85.671875 C 75.769531 -93.410156 82.125 -100.09375 90.4375 -105.71875 C 98.75 -111.34375 108.769531 -115.660156 120.5 -118.671875 C 132.238281 -121.691406 145.441406 -123.203125 160.109375 -123.203125 C 177.703125 -123.203125 193.382812 -120.710938 207.15625 -115.734375 C 220.925781 -110.765625 231.722656 -103.554688 239.546875 -94.109375 C 247.367188 -84.660156 251.28125 -73.253906 251.28125 -59.890625 C 251.28125 -45.867188 247.367188 -34.132812 239.546875 -24.6875 C 231.722656 -15.238281 220.925781 -8.148438 207.15625 -3.421875 C 193.382812 1.304688 177.703125 3.671875 160.109375 3.671875 Z M 138.109375 -33.734375 C 149.191406 -33.734375 158.640625 -34.707031 166.453125 -36.65625 C 174.273438 -38.613281 180.222656 -41.507812 184.296875 -45.34375 C 188.378906 -49.175781 190.421875 -54.023438 190.421875 -59.890625 C 190.421875 -68.523438 185.859375 -75.039062 176.734375 -79.4375 C 167.609375 -83.84375 154.734375 -86.046875 138.109375 -86.046875 C 125.722656 -86.046875 114.351562 -85.3125 104 -83.84375 C 93.65625 -82.375 85.347656 -79.722656 79.078125 -75.890625 C 72.804688 -72.066406 69.671875 -66.734375 69.671875 -59.890625 C 69.671875 -53.046875 72.804688 -47.707031 79.078125 -43.875 C 85.347656 -40.039062 93.65625 -37.390625 104 -35.921875 C 114.351562 -34.460938 125.722656 -33.734375 138.109375 -33.734375 Z M 11 -119.78125 L 66.25 -119.78125 L 69.671875 -73.328125 L 69.671875 48.890625 L 11 48.890625 Z M 11 -119.78125 "/></g></g></g><g fill="#000000" fill-opacity="1"><g transform="translate(290.073848, 319.856483)"><g><path d="M 11 -119.78125 L 69.671875 -119.78125 L 69.671875 0 L 11 0 Z M 132.734375 -74.546875 C 122.140625 -74.546875 112.441406 -73.566406 103.640625 -71.609375 C 94.835938 -69.660156 87.335938 -67.34375 81.140625 -64.65625 C 74.953125 -61.96875 70.3125 -59.316406 67.21875 -56.703125 L 66.734375 -68.4375 C 67.222656 -71.863281 68.523438 -75.898438 70.640625 -80.546875 C 72.753906 -85.191406 75.601562 -90 79.1875 -94.96875 C 82.78125 -99.9375 87.179688 -104.578125 92.390625 -108.890625 C 97.609375 -113.210938 103.597656 -116.71875 110.359375 -119.40625 C 117.117188 -122.09375 124.578125 -123.4375 132.734375 -123.4375 Z M 132.734375 -74.546875 "/></g></g></g><g fill="#000000" fill-opacity="1"><g transform="translate(427.677031, 319.856483)"><g><path d="M 124.65625 3.671875 C 98.75 3.671875 77.195312 1.550781 60 -2.6875 C 42.8125 -6.925781 29.941406 -13.6875 21.390625 -22.96875 C 12.835938 -32.257812 8.5625 -44.484375 8.5625 -59.640625 C 8.5625 -74.796875 12.835938 -87.054688 21.390625 -96.421875 C 29.941406 -105.796875 42.8125 -112.640625 60 -116.953125 C 77.195312 -121.273438 98.75 -123.4375 124.65625 -123.4375 C 150.40625 -123.4375 171.796875 -121.273438 188.828125 -116.953125 C 205.859375 -112.640625 218.609375 -105.796875 227.078125 -96.421875 C 235.554688 -87.054688 239.796875 -74.796875 239.796875 -59.640625 C 239.796875 -44.484375 235.554688 -32.257812 227.078125 -22.96875 C 218.609375 -13.6875 205.859375 -6.925781 188.828125 -2.6875 C 171.796875 1.550781 150.40625 3.671875 124.65625 3.671875 Z M 124.65625 -31.78125 C 136.71875 -31.78125 146.820312 -32.796875 154.96875 -34.828125 C 163.113281 -36.867188 169.304688 -39.96875 173.546875 -44.125 C 177.785156 -48.28125 179.90625 -53.453125 179.90625 -59.640625 C 179.90625 -65.835938 177.828125 -71.050781 173.671875 -75.28125 C 169.515625 -79.519531 163.363281 -82.695312 155.21875 -84.8125 C 147.070312 -86.9375 136.882812 -88 124.65625 -88 C 112.601562 -88 102.378906 -86.9375 93.984375 -84.8125 C 85.585938 -82.695312 79.226562 -79.5625 74.90625 -75.40625 C 70.59375 -71.25 68.4375 -65.992188 68.4375 -59.640625 C 68.4375 -53.453125 70.554688 -48.28125 74.796875 -44.125 C 79.035156 -39.96875 85.347656 -36.867188 93.734375 -34.828125 C 102.128906 -32.796875 112.4375 -31.78125 124.65625 -31.78125 Z M 124.65625 -31.78125 "/></g></g></g><g fill="#000000" fill-opacity="1"><g transform="translate(675.998233, 319.856483)"><g><path d="M 15.15625 -119.78125 L 73.8125 -119.78125 L 73.8125 48.890625 L 15.15625 48.890625 Z M 75.53125 -182.59375 L 75.53125 -145.921875 L 13.4375 -145.921875 L 13.4375 -182.59375 Z M 75.53125 -182.59375 "/></g></g></g><g fill="#000000" fill-opacity="1"><g transform="translate(764.963702, 319.856483)"><g><path d="M 176.234375 -43.015625 L 233.921875 -43.015625 C 232.460938 -33.566406 227.78125 -25.335938 219.875 -18.328125 C 211.96875 -11.328125 200.476562 -5.910156 185.40625 -2.078125 C 170.332031 1.753906 151.144531 3.671875 127.84375 3.671875 C 103.238281 3.671875 82.015625 1.71875 64.171875 -2.1875 C 46.328125 -6.101562 32.597656 -12.707031 22.984375 -22 C 13.367188 -31.289062 8.5625 -43.835938 8.5625 -59.640625 C 8.5625 -75.285156 13.242188 -87.789062 22.609375 -97.15625 C 31.984375 -106.53125 45.550781 -113.253906 63.3125 -117.328125 C 81.070312 -121.398438 102.582031 -123.4375 127.84375 -123.4375 C 152.613281 -123.4375 172.898438 -121.234375 188.703125 -116.828125 C 204.515625 -112.429688 216.164062 -105.304688 223.65625 -95.453125 C 231.15625 -85.597656 234.742188 -72.273438 234.421875 -55.484375 L 68.203125 -55.484375 C 69.015625 -51.242188 71.332031 -47.332031 75.15625 -43.75 C 78.988281 -40.164062 84.9375 -37.273438 93 -35.078125 C 101.070312 -32.878906 111.867188 -31.78125 125.390625 -31.78125 C 139.410156 -31.78125 150.941406 -32.753906 159.984375 -34.703125 C 169.023438 -36.660156 174.441406 -39.429688 176.234375 -43.015625 Z M 125.390625 -88 C 108.117188 -88 94.960938 -86.125 85.921875 -82.375 C 76.878906 -78.625 71.539062 -74.875 69.90625 -71.125 L 177.46875 -71.125 C 176.320312 -75.363281 171.753906 -79.234375 163.765625 -82.734375 C 155.785156 -86.242188 142.992188 -88 125.390625 -88 Z M 125.390625 -88 "/></g></g></g><g fill="#000000" fill-opacity="1"><g transform="translate(1007.907923, 319.856483)"><g><path d="M 4.890625 -119.78125 L 148.625 -119.78125 L 148.625 -83.109375 L 4.890625 -83.109375 Z M 47.421875 -156.4375 L 106.078125 -156.4375 L 106.078125 0 L 47.421875 0 Z M 47.421875 -156.4375 "/></g></g></g><g fill="#000000" fill-opacity="1"><g transform="translate(1161.397783, 319.856483)"><g><path d="M 124.65625 3.671875 C 98.75 3.671875 77.195312 1.550781 60 -2.6875 C 42.8125 -6.925781 29.941406 -13.6875 21.390625 -22.96875 C 12.835938 -32.257812 8.5625 -44.484375 8.5625 -59.640625 C 8.5625 -74.796875 12.835938 -87.054688 21.390625 -96.421875 C 29.941406 -105.796875 42.8125 -112.640625 60 -116.953125 C 77.195312 -121.273438 98.75 -123.4375 124.65625 -123.4375 C 150.40625 -123.4375 171.796875 -121.273438 188.828125 -116.953125 C 205.859375 -112.640625 218.609375 -105.796875 227.078125 -96.421875 C 235.554688 -87.054688 239.796875 -74.796875 239.796875 -59.640625 C 239.796875 -44.484375 235.554688 -32.257812 227.078125 -22.96875 C 218.609375 -13.6875 205.859375 -6.925781 188.828125 -2.6875 C 171.796875 1.550781 150.40625 3.671875 124.65625 3.671875 Z M 124.65625 -31.78125 C 136.71875 -31.78125 146.820312 -32.796875 154.96875 -34.828125 C 163.113281 -36.867188 169.304688 -39.96875 173.546875 -44.125 C 177.785156 -48.28125 179.90625 -53.453125 179.90625 -59.640625 C 179.90625 -65.835938 177.828125 -71.050781 173.671875 -75.28125 C 169.515625 -79.519531 163.363281 -82.695312 155.21875 -84.8125 C 147.070312 -86.9375 136.882812 -88 124.65625 -88 C 112.601562 -88 102.378906 -86.9375 93.984375 -84.8125 C 85.585938 -82.695312 79.226562 -79.5625 74.90625 -75.40625 C 70.59375 -71.25 68.4375 -65.992188 68.4375 -59.640625 C 68.4375 -53.453125 70.554688 -48.28125 74.796875 -44.125 C 79.035156 -39.96875 85.347656 -36.867188 93.734375 -34.828125 C 102.128906 -32.796875 112.4375 -31.78125 124.65625 -31.78125 Z M 124.65625 -31.78125 "/></g></g></g><g fill="#000000" fill-opacity="1"><g transform="translate(28.965286, 630.989211)"><g><path d="M 13.59375 -148.03125 L 86.09375 -148.03125 L 86.09375 0 L 13.59375 0 Z M 194.84375 -152.5625 C 206.726562 -152.5625 218.207031 -151.300781 229.28125 -148.78125 C 240.363281 -146.257812 250.285156 -141.976562 259.046875 -135.9375 C 267.804688 -129.894531 274.800781 -121.640625 280.03125 -111.171875 C 285.269531 -100.703125 287.890625 -87.507812 287.890625 -71.59375 L 287.890625 0 L 215.390625 0 L 215.390625 -62.53125 C 215.390625 -77.632812 211.460938 -88.359375 203.609375 -94.703125 C 195.753906 -101.046875 181.554688 -104.21875 161.015625 -104.21875 C 150.140625 -104.21875 139.613281 -103.007812 129.4375 -100.59375 C 119.269531 -98.175781 110.160156 -95.304688 102.109375 -91.984375 C 94.054688 -88.660156 87.710938 -85.390625 83.078125 -82.171875 L 82.46875 -93.65625 C 83.28125 -97.28125 86.050781 -102.363281 90.78125 -108.90625 C 95.507812 -115.445312 102.40625 -122.039062 111.46875 -128.6875 C 120.53125 -135.332031 131.957031 -140.972656 145.75 -145.609375 C 159.550781 -150.242188 175.914062 -152.5625 194.84375 -152.5625 Z M 393.03125 -152.5625 C 404.90625 -152.5625 416.378906 -151.300781 427.453125 -148.78125 C 438.535156 -146.257812 448.457031 -141.976562 457.21875 -135.9375 C 465.976562 -129.894531 472.972656 -121.640625 478.203125 -111.171875 C 483.441406 -100.703125 486.0625 -87.507812 486.0625 -71.59375 L 486.0625 0 L 413.5625 0 L 413.5625 -62.53125 C 413.5625 -77.632812 409.632812 -88.359375 401.78125 -94.703125 C 393.925781 -101.046875 379.726562 -104.21875 359.1875 -104.21875 C 348.3125 -104.21875 337.785156 -103.007812 327.609375 -100.59375 C 317.441406 -98.175781 308.332031 -95.304688 300.28125 -91.984375 C 292.226562 -88.660156 285.882812 -85.390625 281.25 -82.171875 L 280.640625 -96.671875 C 281.453125 -99.691406 284.472656 -104.222656 289.703125 -110.265625 C 294.941406 -116.304688 302.34375 -122.546875 311.90625 -128.984375 C 321.476562 -135.429688 333.0625 -140.972656 346.65625 -145.609375 C 360.25 -150.242188 375.707031 -152.5625 393.03125 -152.5625 Z M 393.03125 -152.5625 "/></g></g></g><g fill="#000000" fill-opacity="1"><g transform="translate(528.607669, 630.989211)"><g><path d="M 123.25 4.234375 C 101.5 4.234375 82.164062 1.160156 65.25 -4.984375 C 48.332031 -11.128906 34.988281 -20.039062 25.21875 -31.71875 C 15.457031 -43.394531 10.578125 -57.492188 10.578125 -74.015625 C 10.578125 -91.335938 15.457031 -105.835938 25.21875 -117.515625 C 34.988281 -129.191406 48.332031 -137.953125 65.25 -143.796875 C 82.164062 -149.640625 101.5 -152.5625 123.25 -152.5625 C 147.414062 -152.5625 168.3125 -149.285156 185.9375 -142.734375 C 203.5625 -136.191406 217.15625 -127.03125 226.71875 -115.25 C 236.289062 -103.46875 241.078125 -89.722656 241.078125 -74.015625 C 241.078125 -62.328125 238.351562 -51.703125 232.90625 -42.140625 C 227.46875 -32.578125 219.613281 -24.320312 209.34375 -17.375 C 199.070312 -10.425781 186.6875 -5.085938 172.1875 -1.359375 C 157.6875 2.367188 141.375 4.234375 123.25 4.234375 Z M 150.4375 -41.6875 C 165.75 -41.6875 179.796875 -42.640625 192.578125 -44.546875 C 205.367188 -46.460938 215.640625 -49.738281 223.390625 -54.375 C 231.148438 -59.007812 235.03125 -65.554688 235.03125 -74.015625 C 235.03125 -82.671875 231.148438 -89.316406 223.390625 -93.953125 C 215.640625 -98.585938 205.367188 -101.8125 192.578125 -103.625 C 179.796875 -105.4375 165.75 -106.34375 150.4375 -106.34375 C 129.894531 -106.34375 113.984375 -103.671875 102.703125 -98.328125 C 91.429688 -92.992188 85.796875 -84.890625 85.796875 -74.015625 C 85.796875 -66.960938 88.3125 -61.019531 93.34375 -56.1875 C 98.382812 -51.351562 105.738281 -47.726562 115.40625 -45.3125 C 125.070312 -42.894531 136.75 -41.6875 150.4375 -41.6875 Z M 235.03125 -148.03125 L 307.53125 -148.03125 L 307.53125 0 L 239.265625 0 C 239.265625 0 238.910156 -2.3125 238.203125 -6.9375 C 237.492188 -11.570312 236.785156 -18.21875 236.078125 -26.875 C 235.378906 -35.539062 235.03125 -45.710938 235.03125 -57.390625 Z M 195.75 -179.75 C 187.894531 -179.75 180.691406 -180.601562 174.140625 -182.3125 C 167.597656 -184.019531 161.40625 -185.929688 155.5625 -188.046875 C 149.726562 -190.160156 143.890625 -192.070312 138.046875 -193.78125 C 132.210938 -195.5 126.070312 -196.359375 119.625 -196.359375 C 114.789062 -196.359375 110.660156 -195.753906 107.234375 -194.546875 C 103.816406 -193.335938 100.75 -191.625 98.03125 -189.40625 C 95.3125 -187.195312 92.4375 -184.476562 89.40625 -181.25 L 44.09375 -181.25 C 47.925781 -188.90625 53.015625 -196.15625 59.359375 -203 C 65.703125 -209.851562 73.503906 -215.492188 82.765625 -219.921875 C 92.035156 -224.347656 102.8125 -226.5625 115.09375 -226.5625 C 123.144531 -226.5625 130.34375 -225.707031 136.6875 -224 C 143.03125 -222.289062 149.019531 -220.378906 154.65625 -218.265625 C 160.300781 -216.148438 165.890625 -214.234375 171.421875 -212.515625 C 176.960938 -210.804688 182.957031 -209.953125 189.40625 -209.953125 C 195.039062 -209.953125 199.769531 -210.65625 203.59375 -212.0625 C 207.425781 -213.476562 210.75 -215.34375 213.5625 -217.65625 C 216.382812 -219.96875 219.003906 -222.4375 221.421875 -225.0625 L 266.75 -225.0625 C 263.125 -217.601562 258.085938 -210.398438 251.640625 -203.453125 C 245.191406 -196.503906 237.382812 -190.816406 228.21875 -186.390625 C 219.0625 -181.960938 208.238281 -179.75 195.75 -179.75 Z M 195.75 -179.75 "/></g></g></g><g fill="#000000" fill-opacity="1"><g transform="translate(849.720025, 630.989211)"><g><path d="M 154.0625 4.53125 C 122.039062 4.53125 95.40625 1.914062 74.15625 -3.3125 C 52.914062 -8.550781 37.007812 -16.910156 26.4375 -28.390625 C 15.863281 -39.867188 10.578125 -54.972656 10.578125 -73.703125 C 10.578125 -92.441406 15.863281 -107.597656 26.4375 -119.171875 C 37.007812 -130.753906 52.914062 -139.210938 74.15625 -144.546875 C 95.40625 -149.890625 122.039062 -152.5625 154.0625 -152.5625 C 185.882812 -152.5625 212.316406 -149.890625 233.359375 -144.546875 C 254.410156 -139.210938 270.171875 -130.753906 280.640625 -119.171875 C 291.117188 -107.597656 296.359375 -92.441406 296.359375 -73.703125 C 296.359375 -54.972656 291.117188 -39.867188 280.640625 -28.390625 C 270.171875 -16.910156 254.410156 -8.550781 233.359375 -3.3125 C 212.316406 1.914062 185.882812 4.53125 154.0625 4.53125 Z M 154.0625 -39.265625 C 168.96875 -39.265625 181.453125 -40.523438 191.515625 -43.046875 C 201.585938 -45.566406 209.242188 -49.394531 214.484375 -54.53125 C 219.722656 -59.664062 222.34375 -66.054688 222.34375 -73.703125 C 222.34375 -81.359375 219.773438 -87.804688 214.640625 -93.046875 C 209.503906 -98.285156 201.898438 -102.210938 191.828125 -104.828125 C 181.753906 -107.441406 169.164062 -108.75 154.0625 -108.75 C 139.164062 -108.75 126.53125 -107.441406 116.15625 -104.828125 C 105.78125 -102.210938 97.925781 -98.335938 92.59375 -93.203125 C 87.257812 -88.066406 84.59375 -81.566406 84.59375 -73.703125 C 84.59375 -66.054688 87.207031 -59.664062 92.4375 -54.53125 C 97.675781 -49.394531 105.476562 -45.566406 115.84375 -43.046875 C 126.21875 -40.523438 138.957031 -39.265625 154.0625 -39.265625 Z M 154.0625 -39.265625 "/></g></g></g><g fill="#000000" fill-opacity="1"><g transform="translate(1156.634589, 630.989211)"><g><path d="M 12.078125 -53.171875 L 78.84375 -53.171875 C 81.664062 -47.929688 87.050781 -44.300781 95 -42.28125 C 102.957031 -40.269531 114.390625 -39.265625 129.296875 -39.265625 C 140.773438 -39.265625 149.28125 -39.867188 154.8125 -41.078125 C 160.351562 -42.285156 163.976562 -43.894531 165.6875 -45.90625 C 167.40625 -47.925781 168.265625 -50.046875 168.265625 -52.265625 C 168.265625 -55.679688 166.398438 -58.046875 162.671875 -59.359375 C 158.953125 -60.671875 152.660156 -61.476562 143.796875 -61.78125 C 134.929688 -62.082031 122.75 -62.234375 107.25 -62.234375 C 92.539062 -62.234375 79.394531 -62.882812 67.8125 -64.1875 C 56.238281 -65.5 46.421875 -67.613281 38.359375 -70.53125 C 30.304688 -73.457031 24.164062 -77.535156 19.9375 -82.765625 C 15.707031 -88.003906 13.59375 -94.550781 13.59375 -102.40625 C 13.59375 -112.070312 16.710938 -120.175781 22.953125 -126.71875 C 29.203125 -133.269531 37.660156 -138.40625 48.328125 -142.125 C 59.003906 -145.851562 71.34375 -148.523438 85.34375 -150.140625 C 99.34375 -151.753906 113.992188 -152.5625 129.296875 -152.5625 C 154.671875 -152.5625 175.410156 -149.992188 191.515625 -144.859375 C 207.628906 -139.722656 219.515625 -132.820312 227.171875 -124.15625 C 234.828125 -115.5 238.554688 -105.734375 238.359375 -94.859375 L 173.40625 -94.859375 C 171.1875 -100.097656 167.003906 -103.722656 160.859375 -105.734375 C 154.722656 -107.742188 144.203125 -108.75 129.296875 -108.75 C 115.203125 -108.75 104.984375 -107.691406 98.640625 -105.578125 C 92.296875 -103.460938 89.125 -100.09375 89.125 -95.46875 C 89.125 -92.445312 90.679688 -90.179688 93.796875 -88.671875 C 96.921875 -87.160156 102.863281 -86.101562 111.625 -85.5 C 120.382812 -84.894531 133.222656 -84.59375 150.140625 -84.59375 C 161.816406 -84.59375 173.242188 -84.1875 184.421875 -83.375 C 195.597656 -82.570312 205.664062 -80.859375 214.625 -78.234375 C 223.59375 -75.617188 230.695312 -71.59375 235.9375 -66.15625 C 241.175781 -60.71875 243.796875 -53.265625 243.796875 -43.796875 C 243.796875 -32.316406 239.109375 -23.003906 229.734375 -15.859375 C 220.367188 -8.710938 207.128906 -3.523438 190.015625 -0.296875 C 172.898438 2.921875 152.660156 4.53125 129.296875 4.53125 C 108.953125 4.53125 91.78125 3.21875 77.78125 0.59375 C 63.789062 -2.019531 52.363281 -5.488281 43.5 -9.8125 C 34.632812 -14.144531 27.835938 -18.878906 23.109375 -24.015625 C 18.378906 -29.148438 15.257812 -34.285156 13.75 -39.421875 C 12.238281 -44.554688 11.679688 -49.140625 12.078125 -53.171875 Z M 12.078125 -53.171875 "/></g></g></g></svg>