<svg xmlns="http://www.w3.org/2000/svg" xmlns:xlink="http://www.w3.org/1999/xlink" width="1080" zoomAndPan="magnify" viewBox="0 0 810 809.999993" height="1080" preserveAspectRatio="xMidYMid meet" version="1.0"><defs><clipPath id="7c8e34b8af"><path d="M 9.574219 0 L 800 0 L 800 810 L 9.574219 810 Z M 9.574219 0 " clip-rule="nonzero"/></clipPath></defs><g clip-path="url(#7c8e34b8af)"><path fill="#000000" d="M 9.777344 748.140625 L 9.777344 686.296875 L 63.101562 632.347656 C 92.429688 602.675781 134.085938 560.371094 155.675781 538.339844 C 177.265625 516.308594 196.296875 498.28125 197.972656 498.28125 C 201.285156 498.28125 237.976562 520.304688 336.476562 581.425781 C 339.074219 583.035156 339.027344 584.058594 336.164062 588.144531 C 333.265625 592.285156 256.488281 671.480469 150.355469 779.804688 L 120.78125 809.988281 L 9.773438 809.988281 L 9.773438 748.140625 Z M 314.761719 763.6875 C 294.03125 761.046875 269.320312 749.785156 258.394531 737.988281 C 250.625 729.601562 251.429688 717.585938 260.257812 710.152344 C 268.457031 703.25 271.773438 703.710938 289.109375 714.15625 C 305.550781 724.058594 324.046875 727.683594 340.652344 724.253906 C 370.167969 718.164062 380.496094 707.914062 404.078125 661.332031 C 421.78125 626.367188 443.65625 590.398438 459.152344 570.785156 C 463.472656 565.316406 482.460938 545.035156 501.347656 525.71875 C 538.957031 487.253906 545.890625 478.214844 558.300781 451.464844 C 570.578125 425.011719 575.863281 400.550781 575.863281 370.214844 C 575.863281 309.058594 557.191406 263.46875 515.480469 222.789062 C 487.683594 195.679688 449.78125 175.589844 414.277344 169.152344 C 385.484375 163.925781 342.285156 166.671875 313.339844 175.558594 C 262.988281 191.027344 217.488281 231.914062 193.570312 283.199219 C 189.289062 292.378906 178.722656 328.15625 178.722656 333.46875 C 178.722656 335.519531 177.386719 339.027344 175.75 341.261719 C 172.917969 345.140625 172.039062 344.929688 156.777344 336.71875 C 147.972656 331.980469 139.691406 326.390625 138.371094 324.296875 C 131.894531 314.023438 158.0625 248.875 180.574219 219.230469 C 207.714844 183.488281 245.71875 154.464844 285.203125 139.328125 C 319.882812 126.035156 337.882812 122.621094 372.90625 122.699219 C 417.082031 122.796875 451.796875 131.234375 487.746094 150.605469 C 551.929688 185.1875 593.324219 237.820312 612.710938 309.5 C 617.730469 328.050781 618.355469 334.472656 618.359375 367.667969 C 618.367188 399.230469 617.621094 407.777344 613.527344 423.09375 C 597.8125 481.859375 579.9375 510.824219 529.355469 559.492188 C 484.945312 602.21875 456.378906 640.953125 440.132812 680.476562 C 430.980469 702.746094 424.679688 713.34375 412.730469 726.570312 C 387.148438 754.890625 351.566406 768.371094 314.761719 763.6875 Z M 491.820312 467.585938 C 486.152344 463.992188 481.519531 459.480469 481.519531 457.5625 C 481.519531 455.644531 483.96875 450.859375 486.960938 446.933594 C 500.203125 429.566406 512.140625 393.835938 512.203125 371.386719 C 512.25 355.085938 506.417969 330.878906 498.082031 312.78125 C 483.683594 281.511719 453.183594 254.320312 419.550781 242.773438 C 405.78125 238.042969 398.484375 236.925781 381.003906 236.863281 C 355.992188 236.773438 343.710938 239.335938 322.441406 249.074219 C 297.835938 260.339844 278.496094 279.082031 262.839844 306.820312 C 254.003906 322.484375 253.253906 322.605469 235.222656 311.222656 C 222.757812 303.351562 222.367188 300.40625 231.527344 283.210938 C 256.019531 237.246094 303.046875 205.925781 359.742188 197.835938 C 392.824219 193.113281 438.703125 204.183594 469.828125 224.398438 C 504.054688 246.625 528.0625 279.011719 541.097656 320.542969 C 545.46875 334.464844 546.242188 341.550781 546.242188 367.660156 C 546.242188 393.769531 545.46875 400.859375 541.101562 414.773438 C 531.484375 445.410156 514.136719 474.125 505.234375 474.125 C 503.523438 474.125 497.484375 471.183594 491.816406 467.585938 Z M 637.199219 269.429688 C 618.707031 222.804688 593.230469 187.757812 551.777344 151.898438 L 544.144531 145.296875 L 561.554688 126.964844 C 571.128906 116.882812 602.695312 84.1875 631.699219 54.304688 L 684.4375 -0.0234375 L 799.667969 -0.0234375 L 799.667969 119.632812 L 721.214844 198.097656 C 678.070312 241.253906 642.148438 276.5625 641.394531 276.5625 C 640.644531 276.5625 638.753906 273.351562 637.199219 269.425781 Z M 637.199219 269.429688 " fill-opacity="1" fill-rule="nonzero"/></g></svg>