<svg xmlns="http://www.w3.org/2000/svg" xmlns:xlink="http://www.w3.org/1999/xlink" width="1080" zoomAndPan="magnify" viewBox="0 0 810 809.999993" height="1080" preserveAspectRatio="xMidYMid meet" version="1.0"><defs><clipPath id="5ce9ec23a0"><path d="M 9.574219 0 L 800.074219 0 L 800.074219 810 L 9.574219 810 Z M 9.574219 0 " clip-rule="nonzero"/></clipPath></defs><g clip-path="url(#5ce9ec23a0)"><path fill="#ffffff" d="M 9.777344 748.140625 L 9.777344 686.296875 L 63.125 632.347656 C 92.464844 602.675781 134.144531 560.371094 155.742188 538.339844 C 177.339844 516.308594 196.378906 498.28125 198.054688 498.28125 C 201.371094 498.28125 238.078125 520.304688 336.621094 581.425781 C 339.21875 583.035156 339.171875 584.058594 336.308594 588.144531 C 333.410156 592.285156 256.597656 671.480469 150.417969 779.804688 L 120.832031 809.988281 L 9.773438 809.988281 L 9.773438 748.140625 Z M 314.898438 763.6875 C 294.15625 761.046875 269.4375 749.785156 258.503906 737.988281 C 250.730469 729.601562 251.535156 717.585938 260.367188 710.152344 C 268.570312 703.25 271.890625 703.710938 289.234375 714.15625 C 305.683594 724.058594 324.1875 727.683594 340.800781 724.253906 C 370.328125 718.164062 380.660156 707.914062 404.253906 661.332031 C 421.964844 626.367188 443.851562 590.398438 459.351562 570.785156 C 463.675781 565.316406 482.671875 545.035156 501.566406 525.71875 C 539.191406 487.253906 546.128906 478.214844 558.546875 451.464844 C 570.828125 425.011719 576.117188 400.550781 576.117188 370.214844 C 576.117188 309.058594 557.433594 263.46875 515.703125 222.789062 C 487.894531 195.679688 449.976562 175.589844 414.457031 169.152344 C 385.652344 163.925781 342.433594 166.671875 313.476562 175.558594 C 263.101562 191.027344 217.582031 231.914062 193.652344 283.199219 C 189.371094 292.378906 178.800781 328.15625 178.800781 333.46875 C 178.800781 335.519531 177.460938 339.027344 175.824219 341.261719 C 172.988281 345.140625 172.113281 344.929688 156.839844 336.71875 C 148.035156 331.980469 139.75 326.390625 138.429688 324.296875 C 131.949219 314.023438 158.128906 248.875 180.648438 219.230469 C 207.804688 183.488281 245.824219 154.464844 285.324219 139.328125 C 320.019531 126.035156 338.027344 122.621094 373.066406 122.699219 C 417.261719 122.796875 451.992188 131.234375 487.957031 150.605469 C 552.167969 185.1875 593.582031 237.820312 612.980469 309.5 C 618 328.050781 618.625 334.472656 618.632812 367.667969 C 618.636719 399.230469 617.890625 407.777344 613.796875 423.09375 C 598.074219 481.859375 580.191406 510.824219 529.585938 559.492188 C 485.15625 602.21875 456.578125 640.953125 440.324219 680.476562 C 431.167969 702.746094 424.863281 713.34375 412.910156 726.570312 C 387.316406 754.890625 351.71875 768.371094 314.894531 763.6875 Z M 492.035156 467.585938 C 486.367188 463.992188 481.726562 459.480469 481.726562 457.5625 C 481.726562 455.644531 484.179688 450.859375 487.171875 446.933594 C 500.421875 429.566406 512.363281 393.835938 512.429688 371.386719 C 512.472656 355.085938 506.636719 330.878906 498.300781 312.78125 C 483.890625 281.511719 453.378906 254.320312 419.734375 242.773438 C 405.957031 238.042969 398.65625 236.925781 381.171875 236.863281 C 356.148438 236.773438 343.859375 239.335938 322.578125 249.074219 C 297.964844 260.339844 278.613281 279.082031 262.953125 306.820312 C 254.109375 322.484375 253.363281 322.605469 235.324219 311.222656 C 222.851562 303.351562 222.460938 300.40625 231.625 283.210938 C 256.128906 237.246094 303.179688 205.925781 359.894531 197.835938 C 392.992188 193.113281 438.894531 204.183594 470.035156 224.398438 C 504.277344 246.625 528.292969 279.011719 541.335938 320.542969 C 545.707031 334.464844 546.480469 341.550781 546.480469 367.660156 C 546.480469 393.769531 545.707031 400.859375 541.335938 414.773438 C 531.714844 445.410156 514.359375 474.125 505.457031 474.125 C 503.742188 474.125 497.703125 471.183594 492.03125 467.585938 Z M 637.476562 269.429688 C 618.976562 222.804688 593.492188 187.757812 552.015625 151.898438 L 544.378906 145.296875 L 561.796875 126.964844 C 571.378906 116.882812 602.960938 84.1875 631.976562 54.304688 L 684.734375 -0.0234375 L 800.019531 -0.0234375 L 800.019531 119.632812 L 721.53125 198.097656 C 678.367188 241.253906 642.429688 276.5625 641.675781 276.5625 C 640.925781 276.5625 639.035156 273.351562 637.476562 269.425781 Z M 637.476562 269.429688 " fill-opacity="1" fill-rule="nonzero"/></g></svg>