<svg xmlns="http://www.w3.org/2000/svg" xmlns:xlink="http://www.w3.org/1999/xlink" width="1080" zoomAndPan="magnify" viewBox="0 0 810 809.999993" height="1080" preserveAspectRatio="xMidYMid meet" version="1.0"><path fill="#000000" d="M 219.007812 293.222656 C 236.546875 292.519531 249.058594 297.308594 256.011719 306.769531 C 265.253906 319.335938 268.175781 337.101562 270.644531 383.5625 C 270.644531 383.546875 271.007812 391.433594 271.128906 393.71875 C 274.890625 463.640625 266.144531 488.96875 230.011719 492.160156 C 196.949219 495.082031 178.78125 462.644531 171.117188 391.785156 C 166.695312 350.929688 167.476562 331.058594 175.710938 316.320312 C 183.433594 302.503906 197.9375 294.070312 219.007812 293.222656 Z M 330.628906 268.429688 C 350.070312 267.28125 362.652344 271.25 369.933594 280.039062 C 381.804688 294.371094 383.683594 312.34375 382.390625 367.960938 C 382.277344 372.863281 382.128906 381.714844 382.027344 387.429688 C 381.269531 429.164062 379.988281 445.589844 375.253906 460.71875 C 369.753906 478.296875 360.238281 486.585938 342.601562 487.566406 C 320.015625 488.816406 306.863281 480.019531 298.703125 460.597656 C 291.886719 444.382812 289.242188 425.785156 286.367188 384.285156 C 286.136719 380.96875 285.261719 370.203125 285.035156 367.476562 C 281.371094 323.128906 281.796875 305.527344 289.269531 290.683594 C 295.671875 277.964844 310.722656 269.609375 330.628906 268.433594 Z M 449.144531 17.609375 C 481.871094 19.890625 491.683594 51.148438 492.558594 132.742188 C 492.851562 159.84375 492.425781 181.808594 490.625 239.527344 C 489.964844 260.664062 489.609375 272.0625 489.296875 284.878906 C 487.601562 353.769531 488.601562 401.632812 493.769531 443.300781 C 499.488281 489.429688 538.820312 500.222656 578.90625 473.292969 C 585.371094 468.953125 593.382812 463.238281 604.304688 455.273438 C 605.105469 454.691406 630.929688 435.804688 634.175781 433.507812 C 676.859375 403.265625 724.003906 403.710938 754.144531 436.046875 C 765.558594 448.292969 771.730469 463.25 772.648438 478.25 C 773.363281 490.015625 770.488281 500.375 767.203125 503.285156 C 763.253906 506.78125 756.449219 509.683594 743.984375 513.203125 C 740.472656 514.195312 726.410156 517.820312 723.425781 518.644531 C 714.367188 521.140625 706.828125 523.464844 699.238281 526.140625 C 679.363281 533.15625 661.59375 542.085938 644.695312 554.199219 C 622.09375 570.394531 602.085938 591.738281 584.710938 619.625 C 515.960938 729.976562 427.601562 790.371094 311.398438 792.804688 C 229.433594 794.515625 171.871094 774.332031 134.472656 735.480469 C 103.40625 703.203125 86.648438 658.703125 80.175781 601.96875 C 76.558594 570.277344 76.269531 542.425781 77.753906 492.882812 C 79.027344 450.535156 79.058594 438.285156 76.90625 424.554688 C 73 399.605469 68.46875 375.125 63.121094 349.210938 C 60.324219 335.65625 57.382812 322.484375 53.691406 305.917969 C 54.296875 308.632812 46.980469 276.09375 45.222656 268.066406 C 39.203125 240.578125 36.019531 223.28125 34.582031 208.6875 C 31.386719 176.222656 37.578125 161.167969 56.953125 154.628906 C 77.25 147.777344 91.746094 155.726562 104.121094 178.332031 C 114.332031 196.988281 121.066406 220.425781 130.722656 264.316406 C 131.035156 265.722656 141.488281 312.011719 146.566406 333.492188 L 151.914062 355.84375 L 153.21875 361.304688 C 153.574219 370.628906 154.292969 380.933594 155.636719 393.355469 C 164.117188 471.738281 186.421875 511.484375 231.34375 507.519531 C 257.171875 505.234375 273.320312 492.492188 281.167969 469.90625 C 281.953125 467.652344 282.476562 465.074219 283.101562 462.648438 C 283.59375 463.941406 283.898438 465.371094 284.433594 466.640625 C 295.066406 491.9375 314.136719 504.667969 343.449219 503.042969 C 367.871094 501.6875 382.667969 488.769531 390.007812 465.3125 C 395.367188 448.191406 396.71875 431.101562 397.507812 387.671875 C 397.609375 381.960938 397.753906 373.203125 397.871094 368.320312 C 398.378906 346.285156 398.300781 343.003906 398.195312 332.378906 L 398.230469 328.65625 C 398.15625 312.46875 398.054688 312.800781 397.265625 252.585938 C 396.90625 225.101562 396.683594 205.777344 396.539062 186.316406 C 396.417969 170.351562 396.402344 155.683594 396.417969 141.933594 C 396.472656 95.65625 398.578125 69.597656 405.246094 49.535156 C 412.988281 26.242188 426.210938 16.011719 449.144531 17.609375 Z M 450.234375 2.132812 C 419.761719 0.0078125 400.335938 15.082031 390.492188 44.703125 C 383.121094 66.875 380.996094 93.988281 380.9375 141.933594 C 380.921875 155.730469 380.941406 170.429688 381.058594 186.4375 C 381.144531 197.980469 381.574219 234.933594 382.027344 270.726562 C 381.917969 270.59375 381.898438 270.378906 381.785156 270.242188 C 370.90625 257.113281 353.582031 251.535156 329.664062 252.949219 C 304.617188 254.429688 284.46875 265.695312 275.363281 283.789062 C 272.820312 288.84375 270.992188 294.085938 269.679688 299.75 C 269.21875 299.070312 268.960938 298.242188 268.46875 297.574219 C 258.140625 283.527344 240.6875 276.847656 218.402344 277.742188 C 192.097656 278.796875 172.59375 290.164062 162.167969 308.824219 C 160.714844 311.425781 159.875 314.378906 158.78125 317.167969 C 154.722656 299.824219 150.601562 282.296875 146.808594 265.164062 C 146.496094 263.75 146.148438 262.332031 145.84375 260.933594 C 135.859375 215.5625 128.835938 191.246094 117.664062 170.835938 C 102.007812 142.234375 80.304688 130.445312 51.996094 140 C 24.417969 149.304688 15.402344 171.320312 19.222656 210.140625 C 20.734375 225.503906 23.964844 243.289062 30.105469 271.332031 C 31.875 279.398438 39.183594 312.054688 38.570312 309.304688 C 42.25 325.800781 45.105469 338.894531 47.882812 352.359375 C 53.183594 378.042969 57.683594 402.289062 61.550781 426.976562 C 63.480469 439.304688 63.507812 451.503906 62.277344 492.523438 C 60.769531 542.769531 61.09375 571.140625 64.816406 603.78125 C 71.640625 663.601562 89.574219 711.15625 123.347656 746.242188 C 163.980469 788.457031 225.742188 810.082031 311.765625 808.285156 C 433.734375 805.734375 526.464844 742.308594 597.777344 627.851562 C 614.082031 601.679688 632.703125 581.789062 653.648438 566.777344 C 669.273438 555.582031 685.746094 547.332031 704.320312 540.777344 C 711.519531 538.234375 718.800781 536.050781 727.539062 533.640625 C 730.414062 532.847656 744.570312 529.109375 748.21875 528.078125 C 762.84375 523.945312 771.242188 520.425781 777.484375 514.894531 C 794.785156 499.570312 791.96875 453.90625 765.511719 425.523438 C 729.628906 387.027344 673.800781 386.515625 625.226562 420.929688 C 621.898438 423.285156 600.15625 439.164062 596.804688 441.609375 C 596.011719 442.191406 576.574219 456.273438 570.320312 460.472656 C 538.855469 481.609375 513.242188 474.542969 509.128906 441.367188 C 504.078125 400.648438 503.101562 353.425781 504.777344 285.242188 C 505.089844 272.472656 505.445312 261.113281 506.105469 240.007812 C 507.914062 182.054688 508.332031 159.902344 508.039062 132.5 C 507.59375 90.765625 505.371094 65.601562 498.972656 45.304688 C 490.632812 18.859375 474.976562 3.855469 450.234375 2.132812 Z M 450.234375 2.132812 " fill-opacity="1" fill-rule="nonzero"/></svg>